<ttFont>
          <CharString index="0">
            rmoveto
            206 148 172 187 180 -140 181 -211 -205 -150 -170 -188 -183 141 -179 211 hvcurveto
            -185 360 rmoveto
            107 62 107 124 120 66 -102 -110 -106 -61 -110 -125 -121 -65 105 109 vhcurveto
            return
          </CharString>
          <CharString index="1">
            -43 8 34 -24 56 hhcurveto
            17 21 2 6 30 -59 callgsubr
            -25 2 -9 87 callsubr
            -55 -31 -42 -21 -42 hhcurveto
            -47 -26 35 64 hvcurveto
            301 -160 -336 vlineto
            return
          </CharString>
          <CharString index="2">
            -111 -40 99 108 hvcurveto
            363 -164 -363 vlineto
            -186 88 -167 227 219 96 157 196 vhcurveto
            363 -164 -363 vlineto
            -105 -38 -102 -113 vhcurveto
            return
          </CharString>
          <CharString index="3">
            rmoveto
            85 63 85 -63 82 36 -109 108 rlineto
            -115 hlineto
            -110 -108 rlineto
            return
          </CharString>
          <CharString index="4">
            47 115 rmoveto
            -45 -33 28 38 42 43 30 58 28 35 -7 -10 28 hvcurveto
            -50 vlineto
            -13 -9 -14 -14 -11 vhcurveto
            -20 -21 -36 -13 -34 hhcurveto
            return
          </CharString>
          <CharString index="5">
            30 27 14 35 44 45 -18 -41 59 vhcurveto
            62 96 rlineto
            55 -63 -69 19 -78 hhcurveto
            -121 -89 -71 -107 -80 51 -32 141 -39 hvcurveto
            71 -19 26 -13 -28 vvcurveto
            -28 -24 -15 -41 -55 -62 25 44 -64 vhcurveto
            -57 -98 return
          </CharString>
          <CharString index="6">
            rmoveto
            129 -132 -129 vlineto
            342 hmoveto
            129 -132 -129 vlineto
            return
          </CharString>
          <CharString index="7">
            rmoveto
            110 -107 rlineto
            115 hlineto
            109 107 -82 37 -85 -63 -85 63 rlineto
            return
          </CharString>
          <CharString index="8">
            rmoveto
            110 83 84 121 hvcurveto
            522 -160 -534 vlineto
            -33 -23 -22 -30 -20 -20 7 14 -14 vhcurveto
            -67 -109 rlineto
            -33 38 50 -17 53 hhcurveto
            193 787 rmoveto
            145 -160 -145 vlineto
            return
          </CharString>
          <CharString index="9">
            rmoveto
            77 28 -44 130 rlineto
            -121 hlineto
            -87 -158 rmoveto
            78 28 -45 130 rlineto
            -120 hlineto
            return
          </CharString>
          <CharString index="10">
            rmoveto
            -49 143 92 234 rlineto
            -128 hlineto
            -50 -158 -51 158 rlineto
            -128 hlineto
            93 -234 -49 -143 -143 377 rlineto
            -151 hlineto
            217 -525 rlineto
            131 hlineto
            81 216 81 -216 rlineto
            131 hlineto
            217 525 rlineto
            -152 hlineto
            return
          </CharString>
          <CharString index="11">
            373 140 rmoveto
            -105 callsubr
            return
          </CharString>
          <CharString index="12">
            -47 -23 48 -63 hhcurveto
            -94 -33 -112 -30 hvcurveto
            86 hlineto
            3 3 45 44 vhcurveto
            return
          </CharString>
          <CharString index="13">
            31 26 -32 -45 4 hvcurveto
            83 hlineto
            86 -59 61 -85 -84 -60 -61 -86 vhcurveto
            85 hlineto
            return
          </CharString>
          <CharString index="14">
            -32 -27 35 42 hvcurveto
            -85 hlineto
            -86 60 -61 84 85 59 61 86 vhcurveto
            -83 hlineto
            return
          </CharString>
          <CharString index="15">
            rmoveto
            69 65 31 58 32 hvcurveto
            -51 vlineto
            -99 -67 -40 -77 -65 -61 28 44 -38 vhcurveto
            -86 -87 rlineto
            -67 60 77 -38 113 hhcurveto
            179 125 99 160 hvcurveto
            489 vlineto
            return
          </CharString>
          <CharString index="16">
            rmoveto
            -53 43 -28 64 64 42 28 53 54 -42 28 -64 -64 -43 -28 -54 vhcurveto
            107 35 rmoveto
            23 17 -14 -20 -21 -19 -14 -21 -23 -17 15 20 20 17 14 23 hvcurveto
            return
          </CharString>
          <CharString index="17">
            -213 rmoveto
            47 67 rlineto
            99 -134 -99 48 vlineto
            -31 -67 rlineto
            return
          </CharString>
          <CharString index="18">
            65 6 45 43 62 hhcurveto
            61 46 -42 -66 6 hvcurveto
            return
          </CharString>
          <CharString index="19">
            710 vmoveto
            249 -466 rlineto
            -244 163 242 vlineto
            253 468 rlineto
            -179 hlineto
            -155 -326 -153 326 rlineto
            return
          </CharString>
          <CharString index="20">
            214 140 141 215 196 -120 158 -234 hvcurveto
            -265 -710 hlineto
            452 356 rmoveto
            return
          </CharString>
          <CharString index="21">
            164 vstem
            -96 callsubr
            return
          </CharString>
          <CharString index="22">
            rmoveto
            136 83 113 105 94 -75 124 -144 -137 -84 -114 -104 -97 75 -121 146 hvcurveto
            -125 218 rmoveto
            53 37 72 88 81 43 -67 -58 -52 -38 -73 -86 -85 -40 67 58 vhcurveto
            endchar
          </CharString>
          <CharString index="23">
            -52 -9 145 177 120 136 141 hstemhm
            41 162 -141 162 159 163 -142 162 hintmask 11110010
            566 215 rmoveto
            79 -51 56 -49 29 vhcurveto
            hintmask 11101100
            44 23 36 54 52 vvcurveto
            132 -134 70 -109 -109 -132 -72 -132 -52 34 -51 44 -24 vhcurveto
            hintmask 11110010
            -46 -28 -53 -54 -76 vvcurveto
            -138 120 -92 142 144 119 89 135 vhcurveto
            -162 10 rmoveto
            -51 -46 -38 -54 -53 -48 36 52 54 45 35 55 53 48 -32 -56 vhcurveto
            hintmask 11101100
            -180 278 rmoveto
            38 35 28 44 44 36 -28 -38 -46 -42 -24 -38 -37 -42 23 47 vhcurveto
            endchar
          </CharString>
          <CharString index="24">
            -76 callsubr
            vlineto
            hintmask 1000010111000000
            -111 254 vlineto
            -268 -318 rlineto
            hintmask 0010100111000000
            -405 -106 -29 callgsubr
            hintmask 0001100111000000
            36 callgsubr
            hintmask 0100001111000000
            -83 callgsubr
            hintmask 0010100111000000
            -20 callsubr
            hintmask 0100100111000000
            -81 callgsubr
          </CharString>
          <CharString index="25">
            204 -10 rmoveto
            72 67 33 60 47 hvcurveto
            3 -24 rlineto
            return
          </CharString>
          <CharString index="26">
            379 -6 -107 callsubr
            return
          </CharString>
          <CharString index="27">
            -183 rmoveto
            -11 26 37 -10 46 hhcurveto
            95 45 42 53 52 -42 22 -48 -10 -11 -1 -2 -9 hvcurveto
            return
          </CharString>
          <CharString index="28">
            -78 callsubr
            59 129 hstemhm
            24 170 -60 -24 callgsubr
            hintmask 11110110
            266 594 -101 callsubr
            -38 -604 32 callgsubr
            hintmask 11111010
            -47 callsubr
            endchar
          </CharString>
          <CharString index="29">
            -55 -10 115 108 99 108 115 return
          </CharString>
          <CharString index="30">
            21 -52 callsubr
            return
          </CharString>
          <CharString index="31">
            442 111 -273 hlineto
            266 318 rlineto
            96 -421 return
          </CharString>
          <CharString index="32">
            -27 -19 14 35 hvcurveto
            219 107 121 -107 167 -160 -167 4 callsubr
            -274 vlineto
            -102 66 -38 80 57 60 62 callgsubr
          </CharString>
          <CharString index="33">
            144 151 133 138 144 return
          </CharString>
          <CharString index="34">
            -76 callsubr
            -111 254 vlineto
            -268 -318 rlineto
            return
          </CharString>
          <CharString index="35">
            232 hmoveto
            710 -61 callsubr
            vlineto
            return
          </CharString>
          <CharString index="36">
            -6 146 428 146 return
          </CharString>
          <CharString index="37">
            563 144 -356 hlineto
            352 443 rlineto
            123 -545 return
          </CharString>
          <CharString index="38">
            182 rmoveto
            96 -51 62 -81 24 vhcurveto
            hintmask 11111000
            67 30 35 67 67 vvcurveto
            90 -62 92 -100 vhcurveto
            -395 -710 346 hlineto
            hintmask 11110100
            132 109 60 122 hvcurveto
            -167 33 rmoveto
            -45 -32 -31 -42 vhcurveto
            -182 155 189 hlineto
            39 28 -35 -44 hvcurveto
            -89 355 rmoveto
            hintmask 11111000
            35 28 -26 -47 -50 -33 -24 -36 hvcurveto
            -161 147 hlineto
            endchar
          </CharString>
          <CharString index="39">
            49 callgsubr
            hintmask 11101100
            -79 callgsubr
            hintmask 11110010
            -44 -21 -38 -27 -90 callgsubr
            hintmask 11101100
            -166 164 rmoveto
            23 35 15 40 40 36 return
          </CharString>
          <CharString index="40">
            hmoveto
            -66 callsubr
            return
          </CharString>
          <CharString index="41">
            -70 callsubr
            -144 356 vlineto
            -370 -443 rlineto
            return
          </CharString>
          <CharString index="42">
            -10 rmoveto
            132 95 118 156 152 -103 119 -141 -79 -59 -36 -59 -38 hvcurveto
            hintmask 11011010
            85 -139 -738 vlineto
            hintmask 11100110
            160 298 hlineto
            -59 32 61 -36 79 hhcurveto
            -54 135 rmoveto
            -49 -48 41 53 -21 hvcurveto
            108 vlineto
            44 21 45 28 44 hhcurveto
            73 53 -57 -77 -75 -49 -65 -69 hvcurveto
            endchar
          </CharString>
          <CharString index="43">
            88 62 91 -62 251 -64 vlineto
            -247 -251 rlineto
            -91 218 return
          </CharString>
          <CharString index="44">
            31 84 rlineto
            -44 1 -21 15 23 vvcurveto
            return
          </CharString>
          <CharString index="45">
            -101 callsubr
            endchar
          </CharString>
          <CharString index="46">
            -164 -710 return
          </CharString>
          <CharString index="47">
            1 -6 -6 0 -14 hhcurveto
            -63 -1 -61 -43 -36 -70 rrcurveto
            return
          </CharString>
          <CharString index="48">
            -28 callgsubr
            226 -20 hstem
            58 164 302 -86 callsubr
            return
          </CharString>
          <CharString index="49">
            -68 callgsubr
            endchar
          </CharString>
          <CharString index="50">
            68 164 return
          </CharString>
          <CharString index="51">
            -117 0 callgsubr
            3 525 rmoveto
            182 -263 -186 -262 rlineto
            164 hlineto
            99 147 9 19 9 -19 99 -147 rlineto
            164 hlineto
            -186 262 182 263 rlineto
            -164 hlineto
            -94 -148 -10 -19 -10 19 -95 148 rlineto
            endchar
          </CharString>
          <CharString index="52">
            160 315 hlineto
            28 48 68 24 77 1 rrcurveto
            return
          </CharString>
          <CharString index="53">
            hstemhm
            50 160 188 160 return
          </CharString>
          <CharString index="54">
            5 callgsubr
            192 160 return
          </CharString>
          <CharString index="55">
            -21 710 -20 return
          </CharString>
          <CharString index="56">
            101 hlineto
            118 69 -85 -125 hvcurveto
            endchar
          </CharString>
          <CharString index="57">
            -8 -27 callgsubr
            -7 710 rmoveto
            246 -360 -238 -350 rlineto
            178 hlineto
            147 235 147 -235 rlineto
            177 hlineto
            -238 350 246 360 rlineto
            -177 hlineto
            -155 -245 -155 245 rlineto
            endchar
          </CharString>
          <CharString index="58">
            146 -120 -21 252 119 198 146 return
          </CharString>
          <CharString index="59">
            -139 -86 hlineto
            hintmask 11101100
            58 -38 -59 38 -79 hhcurveto
            -140 -104 -118 -153 -154 95 -120 132 hvcurveto
            61 135 rmoveto
            -74 -51 57 78 74 51 65 69 48 52 -40 -52 16 hvcurveto
            -111 vlineto
            -43 -27 -37 -28 -47 hhcurveto
            endchar
          </CharString>
          <CharString index="60">
            -58 -54 38 70 -5 hvcurveto
            388 hlineto
            2 13 2 19 19 vvcurveto
            143 -101 128 -179 -179 -103 -127 -151 -142 105 -125 177 vhcurveto
            -115 322 rmoveto
            -89 callsubr
            return
          </CharString>
          <CharString index="61">
            -130 57 -69 107 vhcurveto
            return
          </CharString>
          <CharString index="62">
            93 101 76 76 90 hstemhm
            30 -32 callsubr
            hintmask 11110010
            399 return
          </CharString>
          <CharString index="63">
            136 371 -274 -119 138 -22 hlineto
            return
          </CharString>
          <CharString index="64">
            rlineto
            28 26 33 19 52 hhcurveto
            32 45 return
          </CharString>
          <CharString index="65">
            -122 -67 -90 -120 vhcurveto
            -101 return
          </CharString>
          <CharString index="66">
            -160 -324 vlineto
            return
          </CharString>
          <CharString index="67">
            rmoveto
            95 94 36 88 54 -40 48 -66 9 hvcurveto
            60 10 36 32 47 vvcurveto
            67 -76 51 -101 -67 -71 -20 -38 -32 vhcurveto
            60 -76 -43 callsubr
            -9 -28 -33 -32 callgsubr
            return
          </CharString>
          <CharString index="68">
            hmoveto
            229 144 vlineto
            136 91 117 124 118 -97 122 -135 hvcurveto
            -303 -710 hlineto
            164 566 rmoveto
            128 hlineto
            38 39 -30 -66 -64 -33 -34 -38 hvcurveto
            -134 hlineto
            endchar
          </CharString>
          <CharString index="69">
            rmoveto
            97 -304 -97 vlineto
            endchar
          </CharString>
          <CharString index="70">
            rmoveto
            -270 193 rlineto
            -129 vlineto
            144 -98 -144 -91 rlineto
            -129 vlineto
            270 178 rlineto
            return
          </CharString>
          <CharString index="71">
            92 -18 callgsubr
            return
          </CharString>
          <CharString index="72">
            91 -215 vlineto
            29 28 22 58 17 vhcurveto
            52 15 76 34 88 vvcurveto
            89 -60 50 -110 -101 -69 -37 -32 -25 vhcurveto
            59 -69 rlineto
            23 79 callsubr
            -19 -63 return
          </CharString>
          <CharString index="73">
            -105 callsubr
            endchar
          </CharString>
          <CharString index="74">
            -56 callgsubr
            225 -20 hstem
            return
          </CharString>
          <CharString index="75">
            94 -78 93 151 93 -78 94 return
          </CharString>
          <CharString index="76">
            204 -7 rmoveto
            93 46 50 127 59 hvcurveto
            250 540 rlineto
            -173 hlineto
            -144 -352 -156 352 rlineto
            -180 hlineto
            262 -515 rlineto
            -42 -14 -25 -18 -34 hhcurveto
            return
          </CharString>
          <CharString index="77">
            -205 rmoveto
            -63 callsubr
            return
          </CharString>
          <CharString index="78">
            -204 -92 callgsubr
            return
          </CharString>
          <CharString index="79">
            -47 0 callsubr
            return
          </CharString>
          <CharString index="80">
            -204 137 return
          </CharString>
          <CharString index="81">
            hmoveto
            710 -177 vlineto
            -185 -371 -184 371 rlineto
            -178 -710 164 425 hlineto
            154 -309 rlineto
            88 hlineto
            154 309 rlineto
            -425 vlineto
            endchar
          </CharString>
          <CharString index="82">
            179 -91 91 251 -20 hstemhm
            242 89 hintmask 10110000
            331 return
          </CharString>
          <CharString index="83">
            693 -100 callsubr
            -137 -730 rmoveto
            -76 callsubr
            return
          </CharString>
          <CharString index="84">
            209 vlineto
            74 77 201 -286 rlineto
            187 hlineto
            -284 393 266 317 rlineto
            -184 hlineto
            -260 -306 rlineto
            306 -61 callsubr
            vlineto
            endchar
          </CharString>
          <CharString index="85">
            rmoveto
            -81 75 -62 106 39 47 11 21 20 vhcurveto
            -57 -1 -43 -33 -65 hhcurveto
            -43 -40 15 24 -22 hvcurveto
            -53 -65 rlineto
            -40 36 57 -22 62 hhcurveto
            123 75 86 146 return
          </CharString>
          <CharString index="86">
            rmoveto
            105 hlineto
            253 430 rlineto
            -380 -93 return
          </CharString>
          <CharString index="87">
            -156 103 -117 145 vhcurveto
            return
          </CharString>
          <CharString index="88">
            42 27 35 32 vhcurveto
            return
          </CharString>
          <CharString index="89">
            70 -70 147 hstemhm
            return
          </CharString>
          <CharString index="90">
            -205 299 189 226 rlineto
            -170 hlineto
            -177 -218 rlineto
            423 -160 -730 160 153 vlineto
            56 58 137 -211 rlineto
            endchar
          </CharString>
          <CharString index="91">
            31 49 33 19 14 hvcurveto
            -243 vlineto
            return
          </CharString>
          <CharString index="92">
            rmoveto
            342 -94 vlineto
            hintmask 11100000
            -8 callgsubr
            hintmask 11001000
            -16 callsubr
            hintmask 11010000
            35 callgsubr
            endchar
          </CharString>
          <CharString index="93">
            -38 21 30 callgsubr
            hstem
            229 164 vstem
            609 710 rmoveto
            -597 -144 10 callgsubr
            hlineto
            endchar
          </CharString>
          <CharString index="94">
            rmoveto
            91 -24 108 -141 -76 -67 -36 -62 -38 vhcurveto
            return
          </CharString>
          <CharString index="95">
            93 250 93 hstem
            29 96 249 95 vstem
            250 return
          </CharString>
          <CharString index="96">
            -213 rmoveto
            160 hlineto
            -10 251 rlineto
            -14 4 25 -34 48 hhcurveto
            64 65 62 39 17 hvcurveto
            3 -30 rlineto
            hintmask 10111100
            -43 7 35 -26 56 hhcurveto
            19 return
          </CharString>
          <CharString index="97">
            -43 callsubr
            -10 -27 return
          </CharString>
          <CharString index="98">
            68 callgsubr
            -139 139 return
          </CharString>
          <CharString index="99">
            118 137 60 105 42 return
          </CharString>
          <CharString index="100">
            525 -160 return
          </CharString>
          <CharString index="101">
            20 -43 -49 11 -52 hhcurveto
            -205 -150 -170 -188 -89 33 -89 59 -67 hvcurveto
            -79 -111 rlineto
            177 hlineto
            18 25 rlineto
            return
          </CharString>
          <CharString index="102">
            135 -112 -21 407 136 195 82 callsubr
            return
          </CharString>
          <CharString index="103">
            38 123 rlineto
            150 -163 -147 45 vlineto
            -24 -126 rlineto
            return
          </CharString>
          <CharString index="104">
            hlineto
            26 15 38 18 33 hhcurveto
            35 44 return
          </CharString>
          <CharString index="105">
            -70 18 -22 10 29 vvcurveto
            return
          </CharString>
          <CharString index="106">
            144 hstem
            -57 callsubr
            return
          </CharString>
          <CharString index="107">
            21 -7 callgsubr
            return
          </CharString>
          <CharString index="108">
            -96 rmoveto
            -87 callsubr
            return
          </CharString>
          <CharString index="109">
            146 570 -20 return
          </CharString>
          <CharString index="110">
            86 126 81 58 89 hstem
            32 90 195 88 vstem
            405 return
          </CharString>
          <CharString index="111">
            -67 -121 67 return
          </CharString>
          <CharString index="112">
            160 vstem
            return
          </CharString>
          <CharString index="113">
            -26 42 52 -14 61 hhcurveto
            179 102 128 144 75 -28 71 -51 50 hvcurveto
            62 72 rlineto
            -88 hlineto
            -27 -32 rlineto
            return
          </CharString>
          <CharString index="114">
            -20 78 -18 callsubr
            return
          </CharString>
          <CharString index="115">
            vstem
            71 hmoveto
            298 hlineto
            147 98 88 149 145 -100 85 -152 hvcurveto
            -126 243 -165 hlineto
            return
          </CharString>
          <CharString index="116">
            -259 21 -21 388 137 8 -20 return
          </CharString>
          <CharString index="117">
            21 47 callsubr
            return
          </CharString>
          <CharString index="118">
            -98 callsubr
            endchar
          </CharString>
          <CharString index="119">
            hvcurveto
            -185 -64 rmoveto
            -52 -46 29 35 35 44 27 54 53 44 -27 -35 -35 -44 -29 -53 hvcurveto
            endchar
          </CharString>
          <CharString index="120">
            214 -10 -73 callgsubr
            return
          </CharString>
          <CharString index="121">
            -3 callsubr
            -19 -46 -21 callgsubr
            return
          </CharString>
          <CharString index="122">
            -60 50 -111 -100 -70 -37 -32 -24 vhcurveto
            59 -68 rlineto
            22 24 42 24 55 hhcurveto
            50 30 -14 return
          </CharString>
          <CharString index="123">
            rmoveto
            166 -131 -166 vlineto
            endchar
          </CharString>
          <CharString index="124">
            rlineto
            40 -36 -56 22 -62 hhcurveto
            -123 -76 -86 -147 -132 72 -75 114 107 80 return
          </CharString>
          <CharString index="125">
            vlineto
            -33 -23 -22 -30 -20 -20 7 14 -13 vhcurveto
            -67 -109 rlineto
            -33 38 50 -17 52 hhcurveto
            return
          </CharString>
          <CharString index="126">
            -63 callsubr
            24 25 28 return
          </CharString>
          <CharString index="127">
            91 253 91 hstem
            291 105 vstem
            return
          </CharString>
          <CharString index="128">
            -20 14 callgsubr
            return
          </CharString>
          <CharString index="129">
            21 -21 563 -20 hstem
            return
          </CharString>
          <CharString index="130">
            0 30 callsubr
            return
          </CharString>
          <CharString index="131">
            rmoveto
            -81 75 -61 106 39 46 11 20 21 vhcurveto
            -56 -2 -43 -34 -64 hhcurveto
            -43 -40 15 return
          </CharString>
          <CharString index="132">
            hmoveto
            214 140 141 215 196 -120 158 -234 hvcurveto
            -265 return
          </CharString>
          <CharString index="133">
            274 205 rmoveto
            66 6 45 44 63 hhcurveto
            63 45 -44 -66 7 hvcurveto
            endchar
          </CharString>
          <CharString index="134">
            -20 -54 callsubr
            hintmask 01111100
            return
          </CharString>
          <CharString index="135">
            82 callgsubr
            hstemhm
            88 160 return
          </CharString>
          <CharString index="136">
            163 -130 -163 vlineto
            return
          </CharString>
          <CharString index="137">
            144 566 -20 return
          </CharString>
          <CharString index="138">
            -160 -386 -133 386 -160 -386 -134 386 -159 return
          </CharString>
          <CharString index="139">
            175 hlineto
            91 159 rlineto
            215 -159 481 144 -318 hlineto
            return
          </CharString>
          <CharString index="140">
            rmoveto
            113 hlineto
            63 35 -43 -56 -61 -33 -38 -65 hvcurveto
            -113 hlineto
            endchar
          </CharString>
          <CharString index="141">
            -107 -231 139 617 -20 return
          </CharString>
          <CharString index="142">
            -361 160 361 return
          </CharString>
          <CharString index="143">
            0 61 84 callgsubr
            return
          </CharString>
          <CharString index="144">
            -27 callsubr
            88 -21 return
          </CharString>
          <CharString index="145">
            146 255 143 -255 133 309 144 -515 vlineto
            return
          </CharString>
          <CharString index="146">
            -20 hstem
            58 164 302 164 vstem
            return
          </CharString>
          <CharString index="147">
            91 callsubr
            24 return
          </CharString>
          <CharString index="148">
            210 96 -210 84 -160 -84 -78 -96 78 -550 160 return
          </CharString>
          <CharString index="149">
            588 -89 callgsubr
            return
          </CharString>
          <CharString index="150">
            -46 callsubr
            endchar
          </CharString>
          <CharString index="151">
            309 0 144 15 144 -13 143 133 144 return
          </CharString>
          <CharString index="152">
            42 17 24 -4 -8 18 vhcurveto
            -3 -6 -1 -63 -7 vvcurveto
            endchar
          </CharString>
          <CharString index="153">
            82 callsubr
            235 160 return
          </CharString>
          <CharString index="154">
            -21 229 143 194 144 return
          </CharString>
          <CharString index="155">
            -21 361 121 123 135 return
          </CharString>
          <CharString index="156">
            -20 78 -11 callgsubr
            return
          </CharString>
          <CharString index="157">
            -6 93 -75 -21 197 76 return
          </CharString>
          <CharString index="158">
            125 hstem
            62 144 return
          </CharString>
          <CharString index="159">
            -204 57 64 48 return
          </CharString>
          <CharString index="160">
            164 70 callgsubr
            return
          </CharString>
          <CharString index="161">
            87 callsubr
            hintmask 11011100
            -55 -31 return
          </CharString>
          <CharString index="162">
            -132 rlineto
            83 hlineto
            57 132 rlineto
            -174 102 303 return
          </CharString>
          <CharString index="163">
            -71 callsubr
            201 -20 84 callsubr
            return
          </CharString>
          <CharString index="164">
            -71 callgsubr
            40 callsubr
            164 return
          </CharString>
          <CharString index="165">
            -461 hlineto
            -18 -204 -28 -317 -28 -42 -97 -10 rlinecurve
            return
          </CharString>
          <CharString index="166">
            0 111 -111 144 270 111 41 144 return
          </CharString>
          <CharString index="167">
            18 7 -10 hvcurveto
            -29 -135 rlineto
            -23 31 54 -9 29 hhcurveto
            return
          </CharString>
          <CharString index="168">
            -103 -407 rmoveto
            133 224 rlineto
            -224 vlineto
            endchar
          </CharString>
          <CharString index="169">
            -30 callsubr
            24 return
          </CharString>
          <CharString index="170">
            rmoveto
            47 137 rlineto
            161 -135 -161 49 vlineto
            return
          </CharString>
          <CharString index="171">
            -20 -9 callsubr
            return
          </CharString>
          <CharString index="172">
            100 -6 146 -119 -21 568 146 -4 -20 return
          </CharString>
          <CharString index="173">
            18 rmoveto
            149 385 153 -385 rlineto
            endchar
          </CharString>
          <CharString index="174">
            -34 7 callgsubr
            return
          </CharString>
          <CharString index="175">
            hstemhm
            28 166 362 136 return
          </CharString>
          <CharString index="176">
            164 230 163 -137 167 hintmask 11110100
            return
          </CharString>
          <CharString index="177">
            -56 -34 -28 -40 -38 -43 callgsubr
            return
          </CharString>
          <CharString index="178">
            89 93 110 -53 callsubr
            return
          </CharString>
          <CharString index="179">
            -10 78 153 78 112 78 153 78 hstem
            return
          </CharString>
          <CharString index="180">
            hlineto
            47 188 rlineto
            -128 hlineto
            -46 -188 rlineto
            return
          </CharString>
          <CharString index="181">
            vlineto
            37 25 -23 -39 -39 -23 -21 -39 hvcurveto
            endchar
          </CharString>
          <CharString index="182">
            333 rmoveto
            342 vlineto
            return
          </CharString>
          <CharString index="183">
            -24 callgsubr
            vstem
            return
          </CharString>
          <CharString index="184">
            -21 vhcurveto
            57 2 42 32 65 hhcurveto
            43 40 -14 return
          </CharString>
          <CharString index="185">
            411 rmoveto
            96 75 69 86 85 -75 69 -96 return
          </CharString>
          <CharString index="186">
            24 42 24 55 hhcurveto
            50 30 -14 -33 -48 -67 return
          </CharString>
          <CharString index="187">
            -24 -40 -14 -36 -36 -39 14 24 vhcurveto
            endchar
          </CharString>
          <CharString index="188">
            53 callgsubr
            589 -20 return
          </CharString>
          <CharString index="189">
            -20 hstemhm
            25 165 return
          </CharString>
          <CharString index="190">
            -21 291 144 return
          </CharString>
          <CharString index="191">
            hstem
            27 167 return
          </CharString>
          <CharString index="192">
            140 194 137 103 146 hstem
            return
          </CharString>
          <CharString index="193">
            134 274 136 hstem
            24 164 return
          </CharString>
          <CharString index="194">
            11 32 vvcurveto
            345 -41 callsubr
            return
          </CharString>
          <CharString index="195">
            566 -164 -566 -186 566 return
          </CharString>
          <CharString index="196">
            -318 -40 127 526 127 hstemhm
            return
          </CharString>
          <CharString index="197">
            -19 callsubr
            endchar
          </CharString>
          <CharString index="198">
            195 -20 hstem
            return
          </CharString>
        <CharString name=".notdef">
          -659 endchar
        </CharString>
        <CharString name="A">
          -57 callgsubr
          hstem
          -103 callgsubr
          endchar
        </CharString>
        <CharString name="A.sc">
          -63 21 -21 118 125 320 -20 hstem
          151 hmoveto
          48 118 rlineto
          197 hlineto
          50 -118 rlineto
          152 hlineto
          -241 563 rlineto
          -117 hlineto
          -243 -563 rlineto
          367 243 rmoveto
          -134 hlineto
          68 146 rlineto
          endchar
        </CharString>
        <CharString name="AE">
          44 callsubr
          hstemhm
          442 176 -163 163 hintmask 11010100
          -26 hmoveto
          32 callsubr
          hintmask 10111000
          38 callsubr
          hintmask 11011000
          61 callsubr
        </CharString>
        <CharString name="AEacute">
          44 callsubr
          205 -20 hstemhm
          442 176 -163 163 hintmask 11011010
          738 915 -102 callgsubr
          -669 -757 rmoveto
          32 callsubr
          hintmask 10111100
          38 callsubr
          hintmask 11011100
          61 callsubr
        </CharString>
        <CharString name="Aacute">
          -57 callgsubr
          225 -20 hstem
          -103 callgsubr
          58 643 -38 callgsubr
        </CharString>
        <CharString name="Abreve">
          -57 callgsubr
          78 70 -70 147 hstemhm
          hintmask 11110000
          -103 callgsubr
          -83 566 rmoveto
          hintmask 11101000
          -93 callsubr
          hintmask 11110000
          -55 callgsubr
        </CharString>
        <CharString name="Acircumflex">
          -57 callgsubr
          225 -20 hstem
          -103 callgsubr
          -168 499 -67 callgsubr
        </CharString>
        <CharString name="Adblgrave">
          -57 callgsubr
          226 -20 hstem
          -103 callgsubr
          -12 486 11 callsubr
        </CharString>
        <CharString name="Adieresis">
          -57 callgsubr
          89 129 hstem
          165 76 callsubr
          -103 callgsubr
          -121 507 -62 callsubr
        </CharString>
        <CharString name="Agrave">
          -57 callgsubr
          226 -20 hstem
          -103 callgsubr
          -128 486 -88 callgsubr
        </CharString>
        <CharString name="Ainvertedbreve">
          -57 callgsubr
          78 147 -70 70 hstemhm
          hintmask 11101000
          -103 callgsubr
          -83 573 rmoveto
          hintmask 11110000
          -94 callsubr
          hintmask 11101000
          90 callsubr
        </CharString>
        <CharString name="Amacron">
          -57 callgsubr
          116 97 hstem
          -103 callgsubr
          70 534 -38 callsubr
        </CharString>
        <CharString name="Aogonek">
          20 -184 -21 226 -41 callgsubr
          hstem
          495 98 vstem
          627 -205 rmoveto
          -46 callgsubr
          -259 710 rlineto
          -148 hlineto
          -259 -710 rlineto
          168 hlineto
          54 159 rlineto
          221 hlineto
          55 -159 rlineto
          79 hlineto
          70 callsubr
          -377 477 rmoveto
          85 251 83 -251 rlineto
          endchar
        </CharString>
        <CharString name="Aring">
          -57 callgsubr
          62 47 69 47 hstem
          228 67 80 66 vstem
          -103 callgsubr
          -190 561 -91 callsubr
          endchar
        </CharString>
        <CharString name="Aringacute">
          -57 callgsubr
          89 139 hstem
          228 67 80 66 vstem
          489 918 rmoveto
          -145 hlineto
          -43 -95 rlineto
          -45 -9 -28 -26 -44 vvcurveto
          -24 8 -20 16 -13 vhcurveto
          -250 -687 rlineto
          168 hlineto
          54 159 rlineto
          221 hlineto
          55 -159 rlineto
          168 hlineto
          -251 687 rlineto
          15 14 9 19 24 vvcurveto
          26 -10 21 -18 13 vhcurveto
          -163 -532 rmoveto
          85 251 83 -251 rlineto
          -83 507 rmoveto
          23 17 -14 -20 -21 -19 -14 -21 -23 -17 15 20 20 17 14 23 hvcurveto
          endchar
        </CharString>
        <CharString name="Atilde">
          -57 callgsubr
          83 -36 callsubr
          hintmask 11110100
          -103 callgsubr
          -19 501 -89 callgsubr
          hintmask 11101000
          -95 callsubr
          hintmask 11110100
          -50 callgsubr
        </CharString>
        <CharString name="B">
          25 72 callgsubr
          68 69 callsubr
          655 -69 callsubr
        </CharString>
        <CharString name="B.sc">
          -57 0 121 107 113 99 123 hstemhm
          62 144 199 142 -119 146 hintmask 11110100
          574 144 rmoveto
          78 -45 48 -70 19 vhcurveto
          hintmask 11111000
          58 23 30 54 52 vvcurveto
          72 -54 73 -87 vhcurveto
          -344 -563 301 hlineto
          hintmask 11110100
          115 96 45 99 hvcurveto
          -146 30 rmoveto
          -32 -29 -21 -36 vhcurveto
          -157 107 163 hlineto
          34 25 -23 -31 hvcurveto
          -78 266 rmoveto
          hintmask 11111000
          30 25 -15 -34 -37 -28 -13 -32 hvcurveto
          -139 99 hlineto
          endchar
        </CharString>
        <CharString name="C">
          34 callgsubr
          84 callsubr
          vstem
          27 361 -98 callgsubr
          endchar
        </CharString>
        <CharString name="C.sc">
          -66 79 callgsubr
          vstem
          27 286 rmoveto
          -144 123 -147 174 100 114 47 84 38 vhcurveto
          -118 70 rlineto
          -53 -23 -59 -20 -48 hhcurveto
          -94 -61 75 84 75 50 81 103 47 59 -16 -57 26 hvcurveto
          110 78 rlineto
          74 -39 -88 49 -112 hhcurveto
          -190 -112 -142 -138 hvcurveto
          endchar
        </CharString>
        <CharString name="CR">
          -659 endchar
        </CharString>
        <CharString name="Cacute">
          29 56 callsubr
          vstem
          527 915 -102 callgsubr
          -405 -396 -98 callgsubr
          endchar
        </CharString>
        <CharString name="Ccaron">
          34 callgsubr
          0 57 84 callgsubr
          27 167 hintmask 10111000
          222 878 -100 callsubr
          -277 -554 rmoveto
          -182 144 -185 206 -8 callsubr
          vhcurveto
          -134 79 rlineto
          -71 -29 -71 -27 -59 hhcurveto
          -114 -73 102 113 hvcurveto
          hintmask 11011000
          103 59 110 126 58 71 -22 -75 32 vhcurveto
          126 88 rlineto
          92 -48 -102 63 -133 hhcurveto
          -224 -132 -181 -172 hvcurveto
          endchar
        </CharString>
        <CharString name="Ccedilla">
          28 52 callsubr
          30 145 428 146 hstem
          26 167 234 73 vstem
          251 -80 callsubr
          23 33 111 8 120 59 39 97 rlinecurve
          -134 79 rlineto
          -71 -29 -71 -27 -59 hhcurveto
          -114 -73 102 113 103 59 110 126 58 71 -22 -75 32 hvcurveto
          126 88 rlineto
          92 -48 -102 63 -133 hhcurveto
          -224 -132 -181 -172 -171 126 -174 186 -20 hvcurveto
          -44 -90 -69 callgsubr
        </CharString>
        <CharString name="Ccircumflex">
          29 56 callsubr
          vstem
          295 771 -104 callsubr
          -186 -446 -98 callgsubr
          endchar
        </CharString>
        <CharString name="Cdotaccent">
          34 callgsubr
          64 137 84 callsubr
          120 144 vstem
          27 361 -98 callgsubr
          431 417 -92 callgsubr
          endchar
        </CharString>
        <CharString name="D">
          57 7 callgsubr
          hstem
          68 164 288 167 vstem
          333 hmoveto
          -87 callsubr
          19 callgsubr
        </CharString>
        <CharString name="D.sc">
          -20 0 125 313 51 callsubr
          258 146 vstem
          296 hmoveto
          189 125 112 171 155 -107 125 -207 hvcurveto
          -234 -563 hlineto
          402 283 rmoveto
          -91 -60 -67 -108 vhcurveto
          -90 313 90 hlineto
          106 62 -63 -92 hvcurveto
          endchar
        </CharString>
        <CharString name="Dcaron">
          57 7 callgsubr
          36 callsubr
          -57 callsubr
          288 167 hintmask 10111100
          157 878 -100 callsubr
          94 -915 rmoveto
          -87 callsubr
          -122 -67 -90 -120 vhcurveto
          -101 hlineto
          hintmask 11011100
          422 101 vlineto
          118 69 -85 -125 hvcurveto
          endchar
        </CharString>
        <CharString name="Dcroat">
          -70 callgsubr
        </CharString>
        <CharString name="Ddotbelow">
          57 -27 callsubr
          67 144 422 -1 callsubr
          39 144 105 167 vstem
          415 -29 callsubr
          62 204 rmoveto
          -87 callsubr
          19 callgsubr
        </CharString>
        <CharString name="Delta">
          -25 23 callsubr
          hstem
          384 710 rmoveto
          -133 hlineto
          -245 -584 rlineto
          -126 622 126 vlineto
          -459 66 callsubr
        </CharString>
        <CharString name="E">
          -60 0 55 callgsubr
          vstem
          232 144 -64 callgsubr
        </CharString>
        <CharString name="E.sc">
          -122 0 125 103 117 93 51 callsubr
          vstem
          206 125 rmoveto
          103 249 117 -249 93 290 125 -434 -563 442 125 vlineto
          endchar
        </CharString>
        <CharString name="Eacute">
          -60 -78 callgsubr
          205 69 callgsubr
          vstem
          462 915 -102 callgsubr
          -135 -613 -64 callgsubr
        </CharString>
        <CharString name="Ebreve">
          -60 -78 callgsubr
          58 -18 callsubr
          -57 callsubr
          hintmask 11110100
          232 144 rmoveto
          151 280 133 -280 138 326 144 -490 -710 499 144 vlineto
          -246 694 rmoveto
          hintmask 11101100
          -93 callsubr
          hintmask 11110100
          -55 callgsubr
        </CharString>
        <CharString name="Ecaron">
          -60 0 144 0 151 0 133 0 138 0 144 36 callsubr
          -57 callsubr
          hintmask 01010111
          154 878 -100 callsubr
          -4 -771 rmoveto
          151 280 vlineto
          hintmask 10101011
          133 -280 138 326 144 -490 -710 499 144 vlineto
          endchar
        </CharString>
        <CharString name="Ecircumflex">
          -60 -78 callgsubr
          205 69 callgsubr
          vstem
          236 771 -104 callsubr
          78 -663 -64 callgsubr
        </CharString>
        <CharString name="Edblgrave">
          -60 -78 callgsubr
          206 69 callgsubr
          vstem
          383 758 -98 callsubr
          111 -772 -64 callgsubr
        </CharString>
        <CharString name="Edieresis">
          -60 -78 callgsubr
          69 129 hstemhm
          -57 callsubr
          -82 -24 callgsubr
          hintmask 11110110
          282 779 -101 callsubr
          hintmask 11111010
          -128 -635 -64 callgsubr
        </CharString>
        <CharString name="Edotaccent">
          -60 -78 callgsubr
          68 137 hstem
          -57 callsubr
          18 144 vstem
          232 144 rmoveto
          151 280 133 -280 138 326 144 -490 -710 499 144 vlineto
          -173 634 -92 callgsubr
          endchar
        </CharString>
        <CharString name="Edotbelow">
          -60 -27 callsubr
          67 55 callgsubr
          14 144 vstem
          232 144 rmoveto
          151 280 133 -280 138 326 144 -490 -710 499 144 vlineto
          -177 -348 -92 callgsubr
          endchar
        </CharString>
        <CharString name="Egrave">
          -60 -78 callgsubr
          206 69 callgsubr
          vstem
          232 144 rmoveto
          151 280 133 -280 138 326 144 -490 -710 499 144 vlineto
          -291 614 -88 callgsubr
        </CharString>
        <CharString name="Einvertedbreve">
          -60 -78 callgsubr
          58 -11 callgsubr
          -57 callsubr
          hintmask 11101100
          318 845 rmoveto
          hintmask 11110100
          -94 callsubr
          hintmask 11101100
          -19 callsubr
          -86 -701 -64 callgsubr
        </CharString>
        <CharString name="Emacron">
          -60 -78 callgsubr
          96 97 hstem
          -57 callsubr
          vstem
          232 144 rmoveto
          151 280 133 -280 138 326 144 -490 -710 499 144 vlineto
          -93 662 -38 callsubr
        </CharString>
        <CharString name="Eng">
          84 53 callgsubr
          85 -21 709 -20 21 -20 hstemhm
          -57 callsubr
          278 164 hintmask 11101100
          514 35 rmoveto
          -44 18 callsubr
          107 86 79 121 hvcurveto
          711 -164 -408 vlineto
          hintmask 11011100
          -316 409 rlineto
          -126 -710 164 401 hlineto
          endchar
        </CharString>
        <CharString name="Eogonek">
          -59 -184 -21 205 55 callgsubr
          162 98 vstem
          232 144 rmoveto
          151 280 133 -280 138 326 144 -490 -710 410 vlineto
          70 callsubr
          -46 callgsubr
          144 vlineto
          endchar
        </CharString>
        <CharString name="Eth">
          -70 callgsubr
        </CharString>
        <CharString name="Etilde">
          -60 -78 callgsubr
          63 -36 callsubr
          -57 callsubr
          hintmask 11110110
          232 144 rmoveto
          151 280 133 -280 138 326 144 -490 -710 499 144 vlineto
          -182 629 -89 callgsubr
          hintmask 11101010
          -95 callsubr
          hintmask 11110110
          -50 callgsubr
        </CharString>
        <CharString name="Euro">
          141 -6 146 92 86 48 86 116 146 hstem
          75 452 rmoveto
          -34 -86 rlineto
          69 -5 hlineto
          -15 1 -14 1 -14 vhcurveto
          -44 hlineto
          -34 -86 rlineto
          100 hlineto
          -131 49 120 -107 157 hhcurveto
          -8 callsubr
          hvcurveto
          -134 79 rlineto
          -71 -29 -71 -27 -59 hhcurveto
          -69 -54 37 55 -32 hvcurveto
          144 hlineto
          34 86 rlineto
          -208 hlineto
          -1 12 -1 12 13 vvcurveto
          11 206 vlineto
          34 86 rlineto
          -222 hlineto
          65 26 55 51 86 hhcurveto
          58 71 -22 -75 32 hvcurveto
          126 88 rlineto
          92 -48 -102 63 -133 hhcurveto
          -185 -121 -123 -139 -38 hvcurveto
          endchar
        </CharString>
        <CharString name="F">
          -90 21 -21 280 133 153 -1 callsubr
          vstem
          232 hmoveto
          280 58 callgsubr
          -710 vlineto
          endchar
        </CharString>
        <CharString name="F.sc">
          -150 21 -21 215 117 106 51 callsubr
          vstem
          206 hmoveto
          215 234 117 -234 106 282 125 -426 -563 vlineto
          endchar
        </CharString>
        <CharString name="G">
          73 -5 -49 callsubr
          68 callsubr
          hintmask 01111100
          556 hmoveto
          -44 callsubr
          hintmask 10111100
          -100 callgsubr
          endchar
        </CharString>
        <CharString name="G.alt">
          58 -5 146 101 144 183 146 84 callsubr
          vstem
          381 -5 rmoveto
          187 128 147 171 hvcurveto
          73 -312 -144 134 vlineto
          -52 -18 -60 -49 -75 hhcurveto
          -118 -53 116 98 106 59 108 113 91 45 -76 -27 15 hvcurveto
          130 102 rlineto
          93 -54 -96 54 -122 hhcurveto
          -215 -133 -173 -182 -189 146 -176 208 hvcurveto
          endchar
        </CharString>
        <CharString name="G.sc">
          -38 -4 128 -103 -21 194 103 142 128 hstemhm
          27 146 170 240 hintmask 01111100
          463 hmoveto
          120 297 -240 -103 120 -5 hlineto
          hintmask 10111100
          -42 -40 -48 -23 -50 hhcurveto
          -88 -64 65 92 90 60 68 86 56 53 -29 -47 25 hvcurveto
          108 81 rlineto
          75 -41 -86 48 -109 hhcurveto
          -169 -129 -124 -157 -155 130 -135 156 57 48 16 38 45 hvcurveto
          endchar
        </CharString>
        <CharString name="Gacute">
          73 -5 -49 callsubr
          200 -20 68 callsubr
          hintmask 01111110
          526 915 -102 callgsubr
          125 -757 rmoveto
          -44 callsubr
          hintmask 10111110
          -100 callgsubr
          endchar
        </CharString>
        <CharString name="Gbreve">
          73 -5 -49 callsubr
          53 70 -70 147 68 callsubr
          hintmask 01111011
          556 hmoveto
          -44 callsubr
          hintmask 10111011
          -100 callgsubr
          hintmask 01111011
          -173 768 rmoveto
          hintmask 10110111
          -93 callsubr
          hintmask 10111011
          -55 callgsubr
        </CharString>
        <CharString name="Gcircumflex">
          73 -5 -49 callsubr
          200 -20 68 callsubr
          hintmask 01111110
          298 771 -104 callsubr
          340 -807 rmoveto
          -44 callsubr
          hintmask 10111110
          -100 callgsubr
          endchar
        </CharString>
        <CharString name="Gcommaaccent">
          73 4 callgsubr
          42 -49 callsubr
          hstemhm
          28 166 110 134 118 136 hintmask 10111111
          391 -90 callsubr
          235 213 rmoveto
          -44 callsubr
          hintmask 11011111
          -100 callgsubr
          endchar
        </CharString>
        <CharString name="Gdotaccent">
          73 -5 -49 callsubr
          63 137 hstemhm
          28 166 119 144 99 136 hintmask 01111111
          556 hmoveto
          -44 callsubr
          hintmask 10111111
          -100 callgsubr
          hintmask 01111111
          -99 708 -92 callgsubr
          endchar
        </CharString>
        <CharString name="H">
          88 21 83 callsubr
          275 69 callgsubr
          283 164 vstem
          515 710 -60 callgsubr
          endchar
        </CharString>
        <CharString name="H.sc">
          5 21 -21 225 126 212 -20 hstem
          62 144 253 143 vstem
          459 563 rmoveto
          -212 -253 212 -144 -563 144 225 253 -225 143 563 vlineto
          endchar
        </CharString>
        <CharString name="Hbar">
          96 21 83 callsubr
          106 76 93 -20 hstem
          72 164 283 164 vstem
          519 710 rmoveto
          -93 -283 93 -164 -93 -50 -76 50 -541 164 291 283 -291 164 541 50 76 -50 93 vlineto
          -447 -275 rmoveto
          106 283 -106 vlineto
          endchar
        </CharString>
        <CharString name="Hcircumflex">
          88 21 83 callsubr
          275 -20 224 69 callgsubr
          283 164 vstem
          291 770 -104 callsubr
          306 -96 -60 callgsubr
          endchar
        </CharString>
        <CharString name="Hdotbelow">
          88 37 callsubr
          291 144 275 69 callgsubr
          68 144 71 164 vstem
          515 710 -60 callgsubr
          -235 -914 -92 callgsubr
          endchar
        </CharString>
        <CharString name="I">
          -15 callgsubr
          hstem
          68 164 vstem
          -72 callsubr
          endchar
        </CharString>
        <CharString name="I.sc">
          -391 22 callsubr
          62 144 vstem
          206 hmoveto
          563 91 callgsubr
        </CharString>
        <CharString name="IJ">
          135 13 callgsubr
          338 164 hintmask 01111000
          -72 callsubr
          236 33 rmoveto
          hintmask 10111000
          -87 callgsubr
          endchar
        </CharString>
        <CharString name="Iacute">
          -359 47 callgsubr
          68 164 vstem
          -72 callsubr
          222 915 -38 callgsubr
        </CharString>
        <CharString name="Ibreve">
          -359 21 -21 710 7 callsubr
          68 53 callsubr
          81 838 rmoveto
          hintmask 11011000
          -93 callsubr
          hintmask 11101000
          -55 callgsubr
        </CharString>
        <CharString name="Icircumflex">
          -359 47 callgsubr
          68 164 vstem
          -72 callsubr
          -3 771 -67 callgsubr
        </CharString>
        <CharString name="Idblgrave">
          -15 callgsubr
          226 69 callgsubr
          vstem
          -72 callsubr
          157 758 11 callsubr
        </CharString>
        <CharString name="Idieresis">
          -15 callgsubr
          89 129 hstemhm
          -21 132 -43 164 -43 132 70 callgsubr
          hintmask 11110100
          43 779 -62 callsubr
        </CharString>
        <CharString name="Idotaccent">
          -15 callgsubr
          88 137 hstem
          -57 callsubr
          vstem
          -72 callsubr
          154 778 -92 callgsubr
          endchar
        </CharString>
        <CharString name="Idotbelow">
          -359 37 callsubr
          710 -20 hstemhm
          68 152 -152 53 callsubr
          hintmask 11110000
          152 -29 callsubr
          endchar
        </CharString>
        <CharString name="Igrave">
          -15 callgsubr
          226 69 callgsubr
          vstem
          -72 callsubr
          36 758 -88 callgsubr
        </CharString>
        <CharString name="Iinvertedbreve">
          -359 21 -21 710 49 callsubr
          -57 callsubr
          hintmask 11011000
          -72 callsubr
          81 845 rmoveto
          hintmask 11101000
          -94 callsubr
          hintmask 11011000
          90 callsubr
        </CharString>
        <CharString name="Imacron">
          -15 callgsubr
          116 97 hstem
          -57 callsubr
          vstem
          -72 callsubr
          235 806 -38 callsubr
        </CharString>
        <CharString name="Iogonek">
          -358 -184 -21 226 -52 callsubr
          hstemhm
          68 89 -89 164 hintmask 11110000
          191 -30 callsubr
          hintmask 11101000
          24 25 28 50 30 vhcurveto
          710 -61 callsubr
          75 vlineto
          70 callsubr
          endchar
        </CharString>
        <CharString name="Itilde">
          -15 callgsubr
          83 -36 callsubr
          -57 callsubr
          hintmask 11101100
          -72 callsubr
          145 773 -89 callgsubr
          hintmask 11010100
          -95 callsubr
          hintmask 11101100
          -50 callgsubr
        </CharString>
        <CharString name="J">
          -165 -11 146 575 -20 hstem
          270 164 vstem
          4 33 rmoveto
          -87 callgsubr
          endchar
        </CharString>
        <CharString name="J.sc">
          -215 -9 128 444 -20 hstem
          245 143 vstem
          8 26 rmoveto
          -23 38 45 -12 54 hhcurveto
          217 26 114 172 hvcurveto
          286 -143 -286 vlineto
          -112 -12 -46 -88 -51 -42 18 6 -12 vhcurveto
          endchar
        </CharString>
        <CharString name="Jcircumflex">
          -165 -11 146 575 -20 225 -20 hstem
          270 164 vstem
          269 771 -104 callsubr
          -183 -774 rmoveto
          -87 callgsubr
          endchar
        </CharString>
        <CharString name="K">
          20 -27 callgsubr
          68 164 vstem
          232 hmoveto
          -23 callsubr
        </CharString>
        <CharString name="K.sc">
          -52 22 callsubr
          62 144 vstem
          206 hmoveto
          168 vlineto
          72 63 186 -231 rlineto
          151 hlineto
          -251 312 236 251 rlineto
          -150 hlineto
          -244 -241 rlineto
          241 91 callgsubr
        </CharString>
        <CharString name="Kcommaaccent">
          20 4 callgsubr
          68 -21 710 69 callgsubr
          58 134 vstem
          377 -90 callsubr
          -75 213 rmoveto
          -23 callsubr
        </CharString>
        <CharString name="L">
          -74 23 callsubr
          hstem
          68 164 vstem
          576 hmoveto
          144 -344 566 -61 callsubr
          vlineto
          endchar
        </CharString>
        <CharString name="L.sc">
          -177 0 125 438 -20 hstem
          62 144 vstem
          474 hmoveto
          125 -268 438 91 callgsubr
        </CharString>
        <CharString name="Lacute">
          -74 23 callsubr
          225 69 callgsubr
          vstem
          505 915 -102 callgsubr
          166 -757 rmoveto
          144 -344 566 -61 callsubr
          vlineto
          endchar
        </CharString>
        <CharString name="Lcaron">
          -74 23 callsubr
          39 -20 hstemhm
          -57 callsubr
          hintmask 10110000
          520 729 -102 callgsubr
          151 -571 rmoveto
          144 -344 vlineto
          hintmask 11010000
          566 -61 callsubr
          vlineto
          endchar
        </CharString>
        <CharString name="Lcommaaccent">
          -74 4 callgsubr
          47 144 566 69 callgsubr
          34 134 vstem
          353 -90 callsubr
          293 213 rmoveto
          144 -344 566 -61 callsubr
          vlineto
          endchar
        </CharString>
        <CharString name="Ldot">
          -74 0 144 181 166 219 69 callgsubr
          132 131 vstem
          576 hmoveto
          144 -344 566 -61 callsubr
          vlineto
          427 325 16 callsubr
        </CharString>
        <CharString name="Lslash">
          -64 23 callsubr
          hstem
          79 164 vstem
          587 hmoveto
          144 -344 223 vlineto
          129 73 -37 86 -92 -52 rlineto
          236 -164 -329 vlineto
          -88 -49 38 -86 50 28 rlineto
          -274 vlineto
          endchar
        </CharString>
        <CharString name="M">
          201 -27 callgsubr
          68 164 396 164 vstem
          792 -26 callsubr
        </CharString>
        <CharString name="M.sc">
          106 22 callsubr
          62 144 353 144 vstem
          703 hmoveto
          563 -156 vlineto
          -164 -278 -165 278 rlineto
          -156 -563 144 314 hlineto
          138 -224 rlineto
          77 hlineto
          138 224 rlineto
          -314 vlineto
          endchar
        </CharString>
        <CharString name="N">
          100 21 -21 710 86 callgsubr
          559 hmoveto
          -80 callgsubr
          endchar
        </CharString>
        <CharString name="N.sc">
          16 22 callsubr
          62 144 263 144 vstem
          498 hmoveto
          115 563 -144 -306 hlineto
          -295 306 rlineto
          -112 -563 144 297 hlineto
          endchar
        </CharString>
        <CharString name="NULL">
          -659 endchar
        </CharString>
        <CharString name="Nacute">
          33 callgsubr
          519 914 -102 callgsubr
          135 -756 rmoveto
          -80 callgsubr
          endchar
        </CharString>
        <CharString name="Ncaron">
          33 callgsubr
          211 877 -100 callsubr
          266 -914 rmoveto
          -80 callgsubr
          endchar
        </CharString>
        <CharString name="Ncommaaccent">
          100 4 callgsubr
          68 -21 710 69 callgsubr
          75 134 86 164 vstem
          394 -90 callsubr
          235 213 rmoveto
          -80 callgsubr
          endchar
        </CharString>
        <CharString name="Ndotaccent">
          100 -77 callsubr
          87 137 hstem
          -57 callsubr
          74 144 77 164 vstem
          450 777 -92 callgsubr
          253 -777 rmoveto
          -80 callgsubr
          endchar
        </CharString>
        <CharString name="Ntilde">
          100 -77 callsubr
          82 -36 callsubr
          -57 callsubr
          295 164 hintmask 11101110
          559 hmoveto
          -80 callgsubr
          209 366 -89 callgsubr
          hintmask 11010110
          -95 callsubr
          hintmask 11101110
          -50 callgsubr
        </CharString>
        <CharString name="O">
          101 -71 callsubr
          hstem
          -48 callgsubr
          vstem
          -81 callsubr
          endchar
        </CharString>
        <CharString name="O.sc">
          -5 79 callgsubr
          308 146 vstem
          326 -5 rmoveto
          176 125 137 147 143 -118 144 -180 -174 -128 -135 -149 -145 121 -142 178 hvcurveto
          -153 286 rmoveto
          78 53 79 101 98 56 -75 -81 -78 -52 -81 -101 -100 -55 77 81 vhcurveto
          endchar
        </CharString>
        <CharString name="OE">
          401 -5 149 -123 -21 290 143 133 144 5 -20 hstemhm
          27 167 344 171 hintmask 10110110
          709 144 rmoveto
          146 256 143 -256 133 310 144 -474 -74 vlineto
          hintmask 10101110
          46 -44 -61 33 -72 hhcurveto
          -197 -144 -171 -188 -183 136 -178 202 71 64 33 47 45 hvcurveto
          hintmask 01110110
          -75 483 vlineto
          hintmask 10110110
          144 vlineto
          -662 -3 rmoveto
          -111 -61 104 109 107 58 108 114 110 62 -103 -110 -107 -57 -108 -115 hvcurveto
          endchar
        </CharString>
        <CharString name="Oacute">
          101 56 callsubr
          372 167 vstem
          528 915 -102 callgsubr
          -54 -763 -107 callsubr
          endchar
        </CharString>
        <CharString name="Obreve">
          101 -71 callsubr
          54 -18 callsubr
          -48 callgsubr
          hintmask 11101100
          -81 callsubr
          190 484 rmoveto
          hintmask 11011100
          -93 callsubr
          hintmask 11101100
          -55 callgsubr
        </CharString>
        <CharString name="Ocircumflex">
          101 56 callsubr
          372 167 vstem
          296 771 -104 callsubr
          165 -813 -107 callsubr
          endchar
        </CharString>
        <CharString name="Odblgrave">
          101 -71 callsubr
          202 -20 hstem
          -48 callgsubr
          vstem
          445 758 -98 callsubr
          196 -922 -107 callsubr
          endchar
        </CharString>
        <CharString name="Odieresis">
          101 -71 callsubr
          65 129 84 callsubr
          16 -24 callgsubr
          14 167 vstem
          342 779 -101 callsubr
          -41 -785 -107 callsubr
          endchar
        </CharString>
        <CharString name="Odotbelow">
          101 -27 callsubr
          61 146 428 146 84 callsubr
          112 144 116 167 vstem
          450 -29 callsubr
          73 198 -107 callsubr
          endchar
        </CharString>
        <CharString name="Ograve">
          101 -71 callsubr
          202 -20 hstem
          -48 callgsubr
          vstem
          -81 callsubr
          146 404 -88 callgsubr
        </CharString>
        <CharString name="Ohungarumlaut">
          101 -71 callsubr
          202 -20 hstem
          -48 callgsubr
          vstem
          409 916 -72 callgsubr
          -117 -764 -107 callsubr
          endchar
        </CharString>
        <CharString name="Oinvertedbreve">
          101 -71 callsubr
          54 -11 callgsubr
          -48 callgsubr
          hintmask 11011100
          381 845 rmoveto
          hintmask 11101100
          -94 callsubr
          hintmask 11011100
          -19 callsubr
          -2 -851 -107 callsubr
          endchar
        </CharString>
        <CharString name="Omacron">
          101 -71 callsubr
          92 97 hstem
          -48 callgsubr
          vstem
          536 806 rmoveto
          97 -304 -97 vlineto
          147 -812 -107 callsubr
          endchar
        </CharString>
        <CharString name="Omega">
          124 0 115 454 44 callgsubr
          115 hlineto
          -89 35 -56 113 42 callgsubr
          -113 -90 -35 vhcurveto
          -115 317 115 -157 vlineto
          91 52 9 callgsubr
          -52 vhcurveto
          -158 hlineto
          endchar
        </CharString>
        <CharString name="Oogonek">
          101 -184 -21 201 144 428 146 84 callsubr
          50 98 224 167 vstem
          376 -30 callsubr
          23 22 27 45 28 vhcurveto
          190 15 134 164 178 vvcurveto
          180 -140 181 -211 -205 -150 -170 -188 -167 117 -164 181 -27 vhcurveto
          -54 -34 -27 -39 -37 -43 callgsubr
          -182 559 rmoveto
          107 62 107 124 120 66 -102 -110 -106 -61 -110 -125 -121 -65 105 109 vhcurveto
          endchar
        </CharString>
        <CharString name="Oslash">
          65 callsubr
          hstemhm
          26 167 372 167 hintmask 10011100
          544 710 rmoveto
          -19 -27 rlineto
          hintmask 01101100
          -6 callsubr
          hintmask 10011100
          1 callgsubr
          hintmask 10101100
          -39 callgsubr
          endchar
        </CharString>
        <CharString name="Oslashacute">
          65 callsubr
          225 -20 hstemhm
          26 167 372 167 hintmask 10011110
          544 710 rmoveto
          -19 -27 rlineto
          hintmask 01101110
          -6 callsubr
          hintmask 10011110
          1 callgsubr
          hintmask 10101110
          -39 callgsubr
          -45 559 -38 callgsubr
        </CharString>
        <CharString name="Otilde">
          101 -71 callsubr
          59 -36 callsubr
          -48 callgsubr
          hintmask 11101110
          -81 callsubr
          254 419 -89 callgsubr
          hintmask 11010110
          -95 callsubr
          hintmask 11101110
          -50 callgsubr
        </CharString>
        <CharString name="P">
          -36 10 callsubr
          hstem
          68 164 205 166 vstem
          232 -39 callsubr
        </CharString>
        <CharString name="P.sc">
          -103 21 -21 176 126 136 51 callsubr
          184 146 vstem
          206 hmoveto
          176 129 vlineto
          120 81 95 99 95 -86 98 -120 hvcurveto
          -268 -563 hlineto
          144 438 rmoveto
          115 hlineto
          34 35 -19 -49 -48 -29 -20 -35 hvcurveto
          -120 hlineto
          endchar
        </CharString>
        <CharString name="Q">
          100 -5 146 -120 -21 569 146 hstemhm
          -48 callgsubr
          hintmask 01111000
          589 hmoveto
          154 hlineto
          -102 112 rlineto
          58 65 34 86 90 vvcurveto
          180 -140 182 -211 -205 -150 -171 -188 vhcurveto
          hintmask 10111000
          -183 141 -178 211 64 59 17 28 50 vhcurveto
          hintmask 01111000
          hintmask 10111000
          -172 101 rmoveto
          -121 -65 104 109 107 62 108 124 120 66 -103 -110 -44 -11 -44 -21 -37 hvcurveto
          -44 49 rlineto
          -154 hlineto
          114 -126 rlineto
          -9 -21 -23 -4 -26 hhcurveto
          endchar
        </CharString>
        <CharString name="Q.sc">
          -4 -4 128 -128 235 -210 -21 439 128 hstemhm
          27 146 308 146 hintmask 00111100
          513 hmoveto
          135 hlineto
          -93 96 rlineto
          46 50 26 65 68 vvcurveto
          143 -118 145 -180 -174 -128 -136 -149 vhcurveto
          hintmask 10011100
          -145 121 -141 178 57 52 14 25 44 vhcurveto
          hintmask 00111100
          hintmask 10011100
          -151 89 rmoveto
          -100 -55 76 81 78 53 80 101 98 56 -76 -81 -30 -8 -30 -15 -25 hvcurveto
          hintmask 01011100
          -32 34 rlineto
          -137 hlineto
          94 -98 rlineto
          hintmask 10011100
          -6 -16 -19 -3 -20 hhcurveto
          endchar
        </CharString>
        <CharString name="R">
          -20 callgsubr
          hstem
          68 164 221 167 vstem
          232 hmoveto
          -99 callgsubr
          endchar
        </CharString>
        <CharString name="R.sc">
          -55 21 -21 176 126 136 51 callsubr
          198 146 vstem
          206 hmoveto
          176 97 vlineto
          126 -176 rlineto
          163 hlineto
          -145 208 rlineto
          63 33 40 62 67 vvcurveto
          95 -86 98 -119 vhcurveto
          -283 -563 hlineto
          144 438 rmoveto
          129 hlineto
          35 34 -26 -42 -42 -29 -26 -35 hvcurveto
          -134 hlineto
          endchar
        </CharString>
        <CharString name="Racute">
          -20 callgsubr
          204 69 callgsubr
          221 167 vstem
          460 914 -102 callgsubr
          -133 -756 rmoveto
          -99 callgsubr
          endchar
        </CharString>
        <CharString name="Rcaron">
          -20 callgsubr
          0 60 84 callgsubr
          -57 callsubr
          221 167 hintmask 11011110
          152 877 -100 callsubr
          -2 -914 rmoveto
          229 107 vlineto
          136 -229 rlineto
          185 hlineto
          -156 264 rlineto
          71 39 45 80 87 vvcurveto
          118 -98 122 -134 vhcurveto
          -320 -710 hlineto
          hintmask 11101110
          164 566 rmoveto
          145 hlineto
          37 39 -38 -58 -57 -32 -41 -39 hvcurveto
          -150 hlineto
          endchar
        </CharString>
        <CharString name="Rcommaaccent">
          11 4 callgsubr
          68 47 callsubr
          hstem
          68 164 45 134 42 167 vstem
          364 -90 callsubr
          -62 213 rmoveto
          -99 callgsubr
          endchar
        </CharString>
        <CharString name="Rdblgrave">
          -20 callgsubr
          206 69 callgsubr
          221 167 vstem
          383 758 -98 callsubr
          111 -916 rmoveto
          -99 callgsubr
          endchar
        </CharString>
        <CharString name="Rdotbelow">
          11 -204 137 88 47 callsubr
          hstem
          68 164 36 144 41 167 vstem
          232 hmoveto
          -99 callgsubr
          180 -576 -92 callgsubr
          endchar
        </CharString>
        <CharString name="Rinvertedbreve">
          -20 callgsubr
          58 -11 callgsubr
          -57 callsubr
          221 167 hintmask 11101110
          322 845 rmoveto
          hintmask 11110110
          -94 callsubr
          hintmask 11101110
          -19 callsubr
          -90 -845 rmoveto
          -99 callgsubr
          endchar
        </CharString>
        <CharString name="S">
          -44 -8 89 callgsubr
          194 176 vstem
          566 638 -104 callgsubr
          -49 callgsubr
          endchar
        </CharString>
        <CharString name="S.sc">
          -123 -7 129 318 128 hstem
          46 148 159 156 vstem
          489 506 rmoveto
          29 -53 -80 33 -86 hhcurveto
          -121 -103 -64 -119 -87 50 -42 112 -32 hvcurveto
          84 -24 61 -8 -36 vvcurveto
          -21 -23 -13 -48 -93 -87 44 20 -19 vhcurveto
          -63 -125 rlineto
          -41 71 99 -27 90 hhcurveto
          116 113 44 132 105 -74 36 -116 31 hvcurveto
          -80 22 -45 8 33 vvcurveto
          24 25 12 47 72 74 -39 -14 15 vhcurveto
          endchar
        </CharString>
        <CharString name="Sacute">
          25 callgsubr
          464 919 -102 callgsubr
          197 -123 -104 callgsubr
          -49 callgsubr
          endchar
        </CharString>
        <CharString name="Scaron">
          -44 -8 23 callgsubr
          0 59 84 callgsubr
          81 callgsubr
          hintmask 10111100
          157 882 -100 callsubr
          327 -281 -104 callgsubr
          hintmask 11011100
          -49 callgsubr
          endchar
        </CharString>
        <CharString name="Schwa">
          93 -5 144 143 123 164 145 hstem
          372 -5 rmoveto
          221 131 182 185 170 -134 182 -217 -150 -116 -75 -113 -54 hvcurveto
          169 -52 rlineto
          58 17 66 37 67 hhcurveto
          85 77 -57 -107 11 hvcurveto
          -523 hlineto
          -3 -16 -3 -25 -23 vvcurveto
          -162 134 -184 222 vhcurveto
          2 144 rmoveto
          -94 -72 57 86 -11 hvcurveto
          345 hlineto
          -87 -11 -67 -56 -90 hhcurveto
          endchar
        </CharString>
        <CharString name="Scircumflex">
          25 callgsubr
          239 775 -104 callsubr
          409 -173 -104 callgsubr
          -49 callgsubr
          endchar
        </CharString>
        <CharString name="Sdotbelow">
          -44 -27 callsubr
          59 89 callgsubr
          15 144 35 176 vstem
          566 638 -104 callgsubr
          -49 callgsubr
          -118 -706 -92 callgsubr
          endchar
        </CharString>
        <CharString name="T">
          -14 callsubr
        </CharString>
        <CharString name="T.sc">
          -102 21 -21 438 125 hstem
          207 144 vstem
          543 563 rmoveto
          -528 -125 192 -438 144 438 192 hlineto
          endchar
        </CharString>
        <CharString name="Tbar">
          -14 21 -21 292 76 198 144 hstem
          241 164 vstem
          621 710 rmoveto
          -597 -144 217 -198 -179 -76 179 -292 164 292 178 76 -178 198 216 hlineto
          endchar
        </CharString>
        <CharString name="Tcaron">
          -38 21 30 callgsubr
          36 callsubr
          229 164 hintmask 10111000
          150 878 -100 callsubr
          377 -205 rmoveto
          -597 hlineto
          hintmask 11011000
          -144 10 callgsubr
          vlineto
          endchar
        </CharString>
        <CharString name="Tdotbelow">
          -38 37 callsubr
          566 144 hstemhm
          229 151 -151 164 hintmask 11110000
          380 -29 callsubr
          373 914 rmoveto
          -597 -144 217 -566 hlineto
          hintmask 11101000
          164 566 216 hlineto
          endchar
        </CharString>
        <CharString name="Thorn">
          -54 21 -21 106 144 193 143 124 69 callgsubr
          191 164 vstem
          355 586 rmoveto
          -123 124 75 callgsubr
          106 129 hlineto
          135 91 116 125 118 -97 121 -135 hvcurveto
          -3 -336 rmoveto
          -120 193 115 hlineto
          38 38 -38 -58 -56 -31 -41 -40 hvcurveto
          endchar
        </CharString>
        <CharString name="U">
          88 -6 146 570 -20 hstem
          58 164 302 -86 callsubr
          endchar
        </CharString>
        <CharString name="U.sc">
          -5 -5 128 440 -20 hstem
          54 144 259 143 vstem
          327 123 rmoveto
          -95 -34 72 79 hvcurveto
          289 -144 -289 vlineto
          -148 77 -131 196 190 83 123 156 vhcurveto
          289 -143 -289 vlineto
          -77 -32 -74 -98 vhcurveto
          endchar
        </CharString>
        <CharString name="Uacute">
          -28 callgsubr
          225 39 callsubr
          514 915 -102 callgsubr
          -46 -617 rmoveto
          -34 callsubr
        </CharString>
        <CharString name="Ubreve">
          88 -6 146 570 7 callsubr
          58 164 302 164 hintmask 11101100
          -96 callsubr
          698 vmoveto
          hintmask 11011100
          -93 callsubr
          hintmask 11101100
          -55 callgsubr
        </CharString>
        <CharString name="Ucircumflex">
          -28 callgsubr
          225 39 callsubr
          288 771 -104 callsubr
          167 -667 rmoveto
          -34 callsubr
        </CharString>
        <CharString name="Udblgrave">
          -28 callgsubr
          226 39 callsubr
          442 758 -98 callsubr
          193 -776 rmoveto
          -34 callsubr
        </CharString>
        <CharString name="Udieresis">
          -28 callgsubr
          89 129 hstemhm
          58 164 -20 -24 callgsubr
          -20 164 hintmask 11101100
          334 779 -101 callsubr
          -39 -639 rmoveto
          hintmask 11110010
          -34 callsubr
        </CharString>
        <CharString name="Udotbelow">
          88 -27 callsubr
          61 2 callsubr
          hstem
          58 164 77 144 81 -86 callsubr
          70 -344 -92 callgsubr
          endchar
        </CharString>
        <CharString name="Ugrave">
          -59 callsubr
          -45 618 -88 callgsubr
        </CharString>
        <CharString name="Uhungarumlaut">
          -59 callsubr
          24 776 -72 callgsubr
          endchar
        </CharString>
        <CharString name="Uinvertedbreve">
          88 -6 146 570 49 callsubr
          58 164 302 164 hintmask 11011100
          372 845 rmoveto
          hintmask 11101100
          -94 callsubr
          hintmask 11011100
          -19 callsubr
          1 -705 rmoveto
          -34 callsubr
        </CharString>
        <CharString name="Umacron">
          -28 callgsubr
          116 97 hstem
          58 164 302 -86 callsubr
          153 666 -38 callsubr
        </CharString>
        <CharString name="Uogonek">
          88 -184 -21 201 144 570 -20 hstem
          58 164 21 98 183 164 vstem
          373 140 rmoveto
          -111 -40 99 108 hvcurveto
          363 -164 -363 vlineto
          -172 75 -155 190 -23 vhcurveto
          -54 -34 -26 -38 -37 -43 callgsubr
          -63 callsubr
          23 22 27 45 28 vhcurveto
          194 15 86 151 185 vvcurveto
          363 -164 -363 vlineto
          -105 -38 -102 -113 vhcurveto
          endchar
        </CharString>
        <CharString name="Uring">
          -28 callgsubr
          62 47 69 47 hstem
          58 164 44 67 80 66 45 164 vstem
          266 833 -91 callsubr
          -728 vmoveto
          -34 callsubr
        </CharString>
        <CharString name="Utilde">
          -28 callgsubr
          83 -36 callsubr
          58 164 302 164 hintmask 11101110
          -96 callsubr
          64 633 -89 callgsubr
          hintmask 11010110
          -95 callsubr
          hintmask 11101110
          -50 callgsubr
        </CharString>
        <CharString name="V">
          15 -27 callgsubr
          -3 710 rmoveto
          272 -710 rlineto
          138 hlineto
          269 710 rlineto
          -173 hlineto
          -165 -504 -167 504 rlineto
          endchar
        </CharString>
        <CharString name="V.sc">
          -62 22 callsubr
          -2 563 rmoveto
          241 -563 rlineto
          121 hlineto
          239 563 rlineto
          -151 hlineto
          -148 -360 -150 360 rlineto
          endchar
        </CharString>
        <CharString name="W">
          396 21 -21 709 -20 21 -20 hstemhm
          hintmask 10100000
          421 379 rmoveto
          -70 -191 -179 522 rlineto
          -178 hlineto
          283 -710 rlineto
          138 hlineto
          112 278 113 -278 rlineto
          137 hlineto
          284 710 rlineto
          -179 hlineto
          -178 -522 -72 191 rlineto
          hintmask 11000000
          119 330 rlineto
          -152 hlineto
          -72 -227 -72 227 rlineto
          -151 hlineto
          endchar
        </CharString>
        <CharString name="W.alt">
          469 21 -21 22 -21 709 -20 21 -20 hstemhm
          hintmask 10010000
          936 711 rmoveto
          -136 -463 rlineto
          hintmask 10100000
          -148 462 rlineto
          -179 hlineto
          -145 -463 -137 463 rlineto
          -186 hlineto
          221 -710 rlineto
          170 hlineto
          167 442 rlineto
          hintmask 01010000
          169 -441 rlineto
          170 hlineto
          221 710 rlineto
          endchar
        </CharString>
        <CharString name="W.sc">
          278 21 -21 562 -20 21 -20 hstemhm
          hintmask 10100000
          375 297 rmoveto
          -56 -124 -167 390 rlineto
          -156 hlineto
          251 -563 rlineto
          121 hlineto
          100 210 101 -210 rlineto
          120 hlineto
          252 563 rlineto
          -157 hlineto
          -166 -390 -59 124 rlineto
          hintmask 11000000
          106 265 rlineto
          -133 hlineto
          -64 -176 -64 176 rlineto
          -133 hlineto
          endchar
        </CharString>
        <CharString name="Wacute">
          396 47 callgsubr
          668 915 -102 callgsubr
          -152 -378 -91 callgsubr
          endchar
        </CharString>
        <CharString name="Wcircumflex">
          396 47 callgsubr
          442 771 -104 callsubr
          61 -428 -91 callgsubr
          endchar
        </CharString>
        <CharString name="Wdieresis">
          396 -77 callsubr
          89 129 hstem
          356 76 callsubr
          488 779 -101 callsubr
          -145 -400 -91 callgsubr
          endchar
        </CharString>
        <CharString name="Wgrave">
          396 -77 callsubr
          226 -20 hstem
          421 379 -91 callgsubr
          178 49 -88 callgsubr
        </CharString>
        <CharString name="X">
          -50 callsubr
        </CharString>
        <CharString name="X.sc">
          -74 22 callsubr
          -2 563 rmoveto
          219 -285 -212 -278 rlineto
          157 hlineto
          131 177 131 -177 rlineto
          156 hlineto
          -212 278 219 285 rlineto
          -156 hlineto
          -138 -185 -139 185 rlineto
          endchar
        </CharString>
        <CharString name="Y">
          4 -27 callgsubr
          249 163 vstem
          -88 callsubr
          endchar
        </CharString>
        <CharString name="Y.sc">
          -76 22 callsubr
          219 144 vstem
          -2 563 rmoveto
          221 -373 rlineto
          -190 144 189 vlineto
          223 374 rlineto
          -156 hlineto
          -139 -250 -137 250 rlineto
          endchar
        </CharString>
        <CharString name="Yacute">
          4 47 callgsubr
          249 163 vstem
          -88 callsubr
          293 205 -38 callgsubr
        </CharString>
        <CharString name="Ycircumflex">
          4 47 callgsubr
          249 163 vstem
          -88 callsubr
          67 61 -67 callgsubr
        </CharString>
        <CharString name="Ydieresis">
          4 -77 callsubr
          89 129 hstemhm
          160 132 -43 163 -42 132 hintmask 11101000
          -88 callsubr
          hintmask 11110100
          114 69 -62 callsubr
        </CharString>
        <CharString name="Ygrave">
          4 -77 callsubr
          226 -20 hstem
          249 163 vstem
          -88 callsubr
          107 48 -88 callgsubr
        </CharString>
        <CharString name="Ytilde">
          4 -77 callsubr
          83 -36 callsubr
          249 163 hintmask 11101100
          -88 callsubr
          216 63 -89 callgsubr
          hintmask 11010100
          -95 callsubr
          hintmask 11101100
          -50 callgsubr
        </CharString>
        <CharString name="Z">
          67 callsubr
          hstem
          28 -67 callsubr
          endchar
        </CharString>
        <CharString name="Z.sc">
          -94 0 125 313 125 hstem
          31 hmoveto
          499 125 -318 hlineto
          315 331 rlineto
          107 -484 -125 317 vlineto
          -329 -331 rlineto
          endchar
        </CharString>
        <CharString name="Zacute">
          67 callsubr
          205 -20 hstem
          464 915 -102 callgsubr
          -341 -757 rmoveto
          -66 callsubr
          endchar
        </CharString>
        <CharString name="Zcaron">
          67 callsubr
          36 callsubr
          hintmask 10110000
          156 878 -100 callsubr
          -210 -915 rmoveto
          -70 callsubr
          vlineto
          hintmask 11010000
          -144 356 vlineto
          -370 -443 rlineto
          endchar
        </CharString>
        <CharString name="Zdotaccent">
          67 callsubr
          68 137 hstem
          251 144 vstem
          28 -67 callsubr
          367 655 -92 callgsubr
          endchar
        </CharString>
        <CharString name="Zdotbelow">
          -34 -27 callsubr
          67 37 callgsubr
          hstem
          244 144 vstem
          28 -67 callsubr
          360 -327 -92 callgsubr
          endchar
        </CharString>
        <CharString name="a">
          -73 -8 113 -94 -21 253 71 callsubr
          hintmask 01111100
          -82 callsubr
          hintmask 10111100
          -107 callgsubr
          hintmask 01111100
          -17 callgsubr
          hintmask 10111100
          -103 callsubr
          endchar
        </CharString>
        <CharString name="a.alt">
          -18 -10 135 -104 -21 399 136 hstemhm
          25 165 236 160 hintmask 10111000
          273 -10 rmoveto
          73 49 31 57 32 hvcurveto
          hintmask 01111000
          -78 159 518 -160 -79 vlineto
          58 -32 -63 38 -74 hhcurveto
          -133 -99 -119 -153 hvcurveto
          hintmask 10111000
          -20 callsubr
          154 208 rmoveto
          -45 -26 -37 -28 -49 hhcurveto
          -73 -52 58 77 72 50 67 68 50 47 -37 -55 22 hvcurveto
          endchar
        </CharString>
        <CharString name="a.alt2">
          -85 -10 115 -84 -21 243 71 callsubr
          hintmask 01111100
          525 hmoveto
          315 vlineto
          141 -90 79 -159 -86 -74 -24 -44 -67 vhcurveto
          47 -100 rlineto
          38 57 50 20 57 hhcurveto
          71 34 -32 -59 hvcurveto
          -24 vlineto
          13 -27 -42 9 -49 hhcurveto
          -125 -100 -68 -107 hvcurveto
          hintmask 10111100
          -95 78 -72 104 71 59 27 52 37 vhcurveto
          hintmask 01111100
          -69 vlineto
          -29 138 rmoveto
          hintmask 10111100
          -21 -22 -37 -12 -32 hhcurveto
          -44 -34 28 38 45 48 27 53 28 35 -6 -11 28 hvcurveto
          -50 vlineto
          -13 -9 -14 -14 -11 vhcurveto
          endchar
        </CharString>
        <CharString name="aacute">
          -74 callgsubr
          195 -20 -105 callgsubr
          166 625 -38 callgsubr
        </CharString>
        <CharString name="abreve">
          -74 callgsubr
          48 70 -70 147 -53 callsubr
          hintmask 01111011
          -82 callsubr
          hintmask 10111011
          -107 callgsubr
          hintmask 01111011
          -17 callgsubr
          hintmask 10111011
          -103 callsubr
          24 548 rmoveto
          hintmask 10110111
          -93 callsubr
          hintmask 10111011
          -55 callgsubr
        </CharString>
        <CharString name="acircumflex">
          -74 callgsubr
          195 -20 -105 callgsubr
          -60 481 -67 callgsubr
        </CharString>
        <CharString name="acute">
          -390 8 callgsubr
          243 730 -38 callgsubr
        </CharString>
        <CharString name="adblgrave">
          -74 callgsubr
          195 -20 -105 callgsubr
          93 467 11 callsubr
        </CharString>
        <CharString name="adieresis">
          -74 callgsubr
          59 129 5 callgsubr
          -68 -24 callgsubr
          -82 160 hintmask 0111110100000000
          -82 callsubr
          hintmask 1011110010000000
          -107 callgsubr
          hintmask 0111110100000000
          -17 callgsubr
          hintmask 1011110010000000
          -103 callsubr
          hintmask 1011101100000000
          -14 489 -62 callsubr
        </CharString>
        <CharString name="ae">
          64 callgsubr
          5 callgsubr
          191 163 hintmask 11011100
          203 -10 rmoveto
          71 89 31 74 50 hvcurveto
          -63 47 79 -42 102 hhcurveto
          121 91 58 82 40 51 callgsubr
          -48 -25 -48 hhcurveto
          -59 -55 38 70 -5 hvcurveto
          390 hlineto
          3 13 2 20 16 vvcurveto
          146 -1 -102 127 -179 hhcurveto
          -75 -61 -25 -39 -45 hvcurveto
          41 -41 -62 23 -80 hhcurveto
          -84 -74 -23 -45 -69 hvcurveto
          47 -100 rlineto
          38 57 50 20 57 hhcurveto
          68 32 -28 -55 4 hvcurveto
          -3 -5 -1 -19 -6 vvcurveto
          hintmask 10111100
          -44 callgsubr
          hintmask 11011100
          26 callsubr
        </CharString>
        <CharString name="aeacute">
          64 callgsubr
          195 -20 5 callgsubr
          191 163 hintmask 11011110
          600 730 -102 callgsubr
          -302 -582 rmoveto
          71 89 31 74 50 hvcurveto
          -63 47 79 -42 102 hhcurveto
          121 91 58 82 40 51 callgsubr
          -48 -25 -48 hhcurveto
          -59 -55 38 70 -5 hvcurveto
          390 hlineto
          3 13 2 20 16 vvcurveto
          146 -1 -102 127 -179 hhcurveto
          -75 -61 -25 -39 -45 hvcurveto
          41 -41 -62 23 -80 hhcurveto
          -84 -74 -23 -45 -69 hvcurveto
          47 -100 rlineto
          38 57 50 20 57 hhcurveto
          68 32 -28 -55 4 hvcurveto
          -3 -5 -1 -19 -6 vvcurveto
          hintmask 10111110
          -44 callgsubr
          hintmask 11011110
          26 callsubr
        </CharString>
        <CharString name="afii61352">
          494 21 -21 336 97 184 93 4 -20 hstemhm
          81 165 294 164 64 115 147 115 hintmask 11101111
          572 hmoveto
          132 710 -164 -417 hlineto
          -331 417 rlineto
          -128 -710 165 406 hlineto
          710 -70 rmoveto
          122 67 89 100 hvcurveto
          hintmask 11011111
          45 callgsubr
          vhcurveto
          -73 189 rmoveto
          hintmask 11101111
          27 callgsubr
        </CharString>
        <CharString name="agrave">
          -74 callgsubr
          196 -20 -105 callgsubr
          -20 468 -88 callgsubr
        </CharString>
        <CharString name="ainvertedbreve">
          -74 callgsubr
          48 147 -70 70 -53 callsubr
          hintmask 01111011
          -82 callsubr
          hintmask 10111011
          -107 callgsubr
          hintmask 01111011
          -17 callgsubr
          hintmask 10110111
          -103 callsubr
          36 555 rmoveto
          hintmask 10111011
          -94 callsubr
          hintmask 10110111
          90 callsubr
        </CharString>
        <CharString name="amacron">
          -74 callgsubr
          86 97 -105 callgsubr
          178 516 -38 callsubr
        </CharString>
        <CharString name="ampersand">
          70 -10 125 -94 -21 602 117 hstemhm
          38 153 -108 145 107 147 31 129 hintmask 01101110
          732 hmoveto
          -153 160 38 63 24 80 1 98 rlinecurve
          -129 hlineto
          -55 -11 -48 -17 -40 vhcurveto
          -111 118 rlineto
          63 48 45 57 75 vvcurveto
          112 -98 51 -101 -114 -86 -67 -109 -50 18 -37 48 -58 vhcurveto
          hintmask 10110110
          -59 -45 -52 -60 -85 vvcurveto
          -111 89 -107 155 67 68 20 40 58 vhcurveto
          hintmask 01110110
          47 -50 rlineto
          hintmask 10110110
          -223 115 rmoveto
          -69 -39 49 43 32 22 27 34 26 hvcurveto
          141 -150 rlineto
          -18 -28 -31 -9 -30 hhcurveto
          hintmask 10101110
          -71 434 rmoveto
          30 22 23 33 31 21 -19 -29 -29 -20 -19 -41 -26 vhcurveto
          -34 35 -12 13 21 vvcurveto
          endchar
        </CharString>
        <CharString name="aogonek">
          -73 -184 -21 195 115 138 71 callsubr
          -139 98 hintmask 11111010
          518 -205 rmoveto
          -46 callgsubr
          135 vlineto
          hintmask 11111100
          -25 2 -9 11 32 vvcurveto
          135 vlineto
          143 -91 77 -158 -84 -74 -23 -45 -69 vhcurveto
          47 -100 rlineto
          38 57 50 20 57 hhcurveto
          71 34 -32 -59 hvcurveto
          -24 vlineto
          14 -31 -43 8 -44 hhcurveto
          -132 -93 -72 -103 -95 78 -72 104 72 67 33 60 47 hvcurveto
          3 -24 6 -36 22 -22 40 -7 rlinecurve
          hintmask 11111010
          -50 -33 -25 -37 -36 -43 callgsubr
          -267 310 rmoveto
          -45 -33 28 38 42 43 30 58 hvcurveto
          hintmask 11111100
          28 35 -7 -10 28 hvcurveto
          -50 vlineto
          -13 -9 -14 -14 -11 vhcurveto
          -20 -21 -36 -13 -34 hhcurveto
          endchar
        </CharString>
        <CharString name="apostrophe">
          -134 8 callgsubr
          372 65 callgsubr
          endchar
        </CharString>
        <CharString name="approxequal">
          -202 120 95 -48 48 -48 96 26 94 -48 48 -48 97 hstemhm
          hintmask 10001000
          338 410 rmoveto
          -14 -8 -14 -13 -26 hhcurveto
          hintmask 10000100
          -47 -24 49 -62 hhcurveto
          -56 -35 -38 -39 -19 hvcurveto
          74 -44 rlineto
          13 6 12 11 24 hhcurveto
          hintmask 01010000
          44 28 -46 61 hhcurveto
          57 37 41 40 20 hvcurveto
          -72 -129 rmoveto
          -14 -8 -14 -12 -26 hhcurveto
          hintmask 00110000
          -47 -24 48 -62 hhcurveto
          -56 -35 -38 -38 -19 hvcurveto
          74 -44 rlineto
          12 6 12 12 24 hhcurveto
          hintmask 10010000
          44 28 -47 61 hhcurveto
          57 37 41 38 20 hvcurveto
          endchar
        </CharString>
        <CharString name="aring">
          -74 callgsubr
          32 47 69 47 5 callgsubr
          -4 67 80 66 -17 160 hintmask 0111111010000000
          -82 callsubr
          hintmask 1011111001000000
          -107 callgsubr
          hintmask 0111111010000000
          -17 callgsubr
          hintmask 1011111001000000
          -103 callsubr
          hintmask 1011110110000000
          -82 543 -91 callsubr
          endchar
        </CharString>
        <CharString name="aringacute">
          -74 callgsubr
          32 47 69 47 -47 226 5 callgsubr
          -4 67 80 66 -17 160 hintmask 0111110101000000
          -82 callsubr
          hintmask 1011110100100000
          -107 callgsubr
          hintmask 0111110101000000
          -17 callgsubr
          hintmask 1011101100100000
          -103 callsubr
          166 804 -102 callgsubr
          hintmask 1011110011000000
          -153 -103 -91 callsubr
          endchar
        </CharString>
        <CharString name="asciicircum">
          -55 324 -21 407 -20 hstem
          166 303 rmoveto
          136 275 134 -275 rlineto
          130 hlineto
          -197 407 rlineto
          -133 hlineto
          -198 -407 rlineto
          endchar
        </CharString>
        <CharString name="asciitilde">
          -72 222 92 -41 41 -41 94 hstemhm
          hintmask 10000000
          51 222 rmoveto
          86 hlineto
          hintmask 01000000
          2 6 49 58 vhcurveto
          hintmask 10000000
          61 47 -51 74 hhcurveto
          120 36 126 17 hvcurveto
          -86 hlineto
          -4 -11 -47 -58 vhcurveto
          hintmask 00100000
          -61 -45 53 -76 hhcurveto
          hintmask 10000000
          -115 -36 -117 -28 hvcurveto
          endchar
        </CharString>
        <CharString name="asterisk">
          -305 492 -21 248 -20 hstem
          138 77 vstem
          130 471 rmoveto
          47 79 47 -79 59 39 -47 75 71 21 -21 67 -74 -34 6 80 rlineto
          -83 hlineto
          6 -80 -73 34 -21 -67 71 -21 -47 -75 rlineto
          endchar
        </CharString>
        <CharString name="at">
          189 -146 61 69 69 -57 78 140 74 87 90 77 61 hstemhm
          40 64 116 94 201 94 128 64 hintmask 1101111111000000
          423 603 rmoveto
          -202 -181 -132 -240 -228 163 -149 200 59 62 13 27 56 hvcurveto
          -18 59 rlineto
          -21 -50 -41 -17 -66 hhcurveto
          -186 -115 141 173 181 124 132 190 193 126 -135 -182 -51 -11 -121 -68 -46 -3 60 59 hvcurveto
          82 vlineto
          89 -7 122 -182 -65 -59 -16 -34 -50 vhcurveto
          28 -83 rlineto
          26 30 45 17 55 hhcurveto
          88 23 -44 -64 hvcurveto
          8 -19 -37 13 -52 hhcurveto
          -92 -95 -37 -113 hvcurveto
          hintmask 1011111111000000
          -84 54 -58 100 65 62 24 42 43 vhcurveto
          hintmask 1101111111000000
          -35 5 21 -43 73 hhcurveto
          149 9 182 55 257 -181 125 -197 hvcurveto
          45 -510 rmoveto
          hintmask 1011111111000000
          -13 -25 -36 -6 -22 hhcurveto
          -47 -24 24 42 52 35 22 59 44 43 -13 -6 19 hvcurveto
          -40 vlineto
          -26 -18 -23 -28 -13 vhcurveto
          endchar
        </CharString>
        <CharString name="atilde">
          -74 callgsubr
          53 92 -46 94 2 -20 -53 callsubr
          hintmask 0111101110000000
          -82 callsubr
          hintmask 1011101110000000
          -107 callgsubr
          hintmask 0111101110000000
          -17 callgsubr
          hintmask 1011101110000000
          -103 callsubr
          88 483 -89 callgsubr
          hintmask 1011010110000000
          -95 callsubr
          hintmask 1011101110000000
          -50 callgsubr
        </CharString>
        <CharString name="b">
          56 callgsubr
          55 67 callgsubr
          164 hintmask 10110110
          370 -10 rmoveto
          140 105 117 153 153 -95 122 -133 -78 -60 -36 -60 -34 hvcurveto
          291 -160 vlineto
          hintmask 01111010
          -730 139 87 vlineto
          hintmask 10110110
          -61 35 61 -36 80 hhcurveto
          -45 135 rmoveto
          -44 -45 28 45 -21 hvcurveto
          110 vlineto
          52 22 45 39 51 hhcurveto
          68 50 -64 -75 -76 -52 -59 -74 hvcurveto
          endchar
        </CharString>
        <CharString name="backslash">
          4 -27 callgsubr
          26 710 rmoveto
          436 -710 rlineto
          176 hlineto
          -435 710 rlineto
          endchar
        </CharString>
        <CharString name="bar">
          -368 -109 -21 905 -20 hstem
          78 135 vstem
          213 -130 rmoveto
          905 -135 -905 vlineto
          endchar
        </CharString>
        <CharString name="braceleft">
          -315 -10 -21 771 -20 hstemhm
          39 198 -144 144 -144 199 hintmask 11001000
          292 613 rmoveto
          127 -176 vlineto
          -7 -16 -6 -24 hvcurveto
          -224 vlineto
          hintmask 11100000
          -32 -26 -38 -28 vhcurveto
          -110 vlineto
          hintmask 11010000
          27 -6 27 -28 -38 vvcurveto
          -235 vlineto
          -24 15 -6 8 vhcurveto
          hintmask 11001000
          176 127 hlineto
          hintmask 11100000
          -55 192 hlineto
          30 -18 24 -20 18 vhcurveto
          21 19 17 22 31 vvcurveto
          181 vlineto
          endchar
        </CharString>
        <CharString name="braceright">
          -315 -10 -21 771 -20 hstemhm
          52 198 -143 143 -143 198 hintmask 11010000
          107 613 rmoveto
          -181 vlineto
          -31 16 -22 21 -19 vhcurveto
          -20 -18 -17 -24 -30 vvcurveto
          -192 vlineto
          hintmask 11100000
          -55 -127 175 hlineto
          9 14 6 24 hvcurveto
          235 vlineto
          hintmask 11001000
          38 28 28 27 6 vhcurveto
          110 vlineto
          hintmask 11100000
          -28 -27 38 32 hvcurveto
          224 vlineto
          24 -15 6 -8 vhcurveto
          -175 -127 hlineto
          endchar
        </CharString>
        <CharString name="bracketleft">
          89 callsubr
          80 148 -148 215 hintmask 11010000
          295 -40 rmoveto
          127 vlineto
          hintmask 11100000
          -67 526 hlineto
          hintmask 11010000
          67 127 -215 -780 hlineto
          endchar
        </CharString>
        <CharString name="bracketright">
          89 callsubr
          47 214 -148 148 hintmask 11100000
          261 -40 rmoveto
          780 -214 -127 vlineto
          hintmask 11010000
          66 -526 hlineto
          hintmask 11100000
          -66 -127 hlineto
          endchar
        </CharString>
        <CharString name="breve">
          -312 583 -18 callsubr
          hintmask 10000000
          173 653 rmoveto
          hintmask 01000000
          -93 callsubr
          hintmask 10000000
          -55 callgsubr
        </CharString>
        <CharString name="brokenbar">
          -365 -109 -21 905 -20 hstem
          79 136 vstem
          79 260 rmoveto
          -390 136 390 vlineto
          -136 515 rmoveto
          -390 136 390 vlineto
          endchar
        </CharString>
        <CharString name="bullet">
          -292 241 220 hstem
          73 220 vstem
          293 351 rmoveto
          60 -49 50 -61 -60 -50 -50 -60 -61 50 -49 60 61 49 49 61 vhcurveto
          endchar
        </CharString>
        <CharString name="c">
          -89 -71 callgsubr
          hstem
          24 164 vstem
          24 263 -95 callgsubr
          endchar
        </CharString>
        <CharString name="c_t">
          313 -10 146 263 136 -10 -20 160 69 hstemhm
          24 164 245 66 159 160 hintmask 10111110
          935 155 rmoveto
          -9 -20 -27 -10 -24 hhcurveto
          -26 -20 14 35 hvcurveto
          219 107 121 -107 vlineto
          100 -1 109 -189 -128 -67 -55 -95 -29 9 -30 12 -29 vhcurveto
          hintmask 11011110
          25 -43 -37 14 -64 hhcurveto
          -187 -99 -130 -142 -144 103 -129 179 118 89 56 83 40 hvcurveto
          -156 48 rlineto
          -33 -17 -38 -19 -37 hhcurveto
          -65 -52 56 81 79 48 58 68 39 32 -17 -33 21 hvcurveto
          156 47 rlineto
          -17 37 -36 80 62 vvcurveto
          51 21 39 60 vhcurveto
          hintmask 10111110
          68 9 -46 -94 1 hvcurveto
          4 callsubr
          -274 hlineto
          -102 67 -38 79 58 59 62 callgsubr
        </CharString>
        <CharString name="cacute">
          -89 57 callsubr
          vstem
          446 730 -102 callgsubr
          -327 -309 -95 callgsubr
          endchar
        </CharString>
        <CharString name="caron">
          -275 607 -21 144 -20 hstem
          25 693 -100 callsubr
          endchar
        </CharString>
        <CharString name="caron.alt">
          -390 8 callgsubr
          243 730 -38 callgsubr
        </CharString>
        <CharString name="ccaron">
          -89 -71 callgsubr
          0 51 84 callgsubr
          24 164 hintmask 10111000
          138 693 -100 callsubr
          -196 -467 rmoveto
          -145 105 -128 177 121 87 58 81 39 vhcurveto
          -156 48 rlineto
          -31 -16 -36 -21 -40 hhcurveto
          -65 -52 55 83 hvcurveto
          hintmask 11011000
          82 51 54 66 39 32 -18 -32 20 vhcurveto
          156 47 rlineto
          82 -41 -85 57 -120 hhcurveto
          -178 -104 -127 -145 hvcurveto
          endchar
        </CharString>
        <CharString name="ccedilla">
          -89 52 callsubr
          26 86 callsubr
          183 73 vstem
          195 -80 callsubr
          20 30 101 11 73 54 35 72 rlinecurve
          -156 48 rlineto
          -31 -16 -36 -21 -40 hhcurveto
          -65 -52 55 83 82 51 54 66 39 32 -18 -32 20 hvcurveto
          156 47 rlineto
          82 -41 -85 57 -120 hhcurveto
          -178 -104 -127 -145 -138 95 -122 161 -12 hvcurveto
          -42 -85 -69 callgsubr
        </CharString>
        <CharString name="ccircumflex">
          -89 57 callsubr
          vstem
          220 586 -104 callsubr
          -114 -359 -95 callgsubr
          endchar
        </CharString>
        <CharString name="cdotaccent">
          -89 -71 callgsubr
          58 137 hstem
          24 164 46 144 vstem
          24 263 -95 callgsubr
          354 330 -92 callgsubr
          endchar
        </CharString>
        <CharString name="cedilla">
          -316 52 callsubr
          67 -20 hstem
          197 73 vstem
          21 -80 callsubr
          36 52 -60 18 -62 -126 -69 callgsubr
        </CharString>
        <CharString name="cent">
          -55 -99 -21 131 -21 655 -20 hstem
          38 165 73 69 vstem
          345 -120 rmoveto
          110 vlineto
          67 114 46 93 42 hvcurveto
          -156 48 -10 -23 -28 -17 -29 -8 rlinecurve
          265 vlineto
          25 -3 27 -17 14 -25 156 47 rcurveline
          -47 89 -84 45 -91 3 rrcurveto
          112 -69 -112 vlineto
          -156 -25 -82 -115 -135 vvcurveto
          -127 99 -129 139 -11 vhcurveto
          -111 vlineto
          -73 378 rmoveto
          61 27 54 46 14 vhcurveto
          -250 vlineto
          -46 20 -27 49 52 vvcurveto
          endchar
        </CharString>
        <CharString name="circumflex">
          -275 607 -21 144 -20 hstem
          107 586 -67 callgsubr
        </CharString>
        <CharString name="colon">
          -385 0 163 193 163 hstem
          72 130 vstem
          202 356 rmoveto
          29 callsubr
          130 -356 rmoveto
          29 callsubr
          endchar
        </CharString>
        <CharString name="colonmonetary">
          -82 -120 245 -114 -21 409 246 -110 -20 hstemhm
          28 164 8 72 60 72 hintmask 10101110
          200 -120 rmoveto
          72 112 hlineto
          hintmask 01101110
          -1 12 13 -1 13 hhcurveto
          7 8 0 1 7 hvcurveto
          hintmask 10101110
          -111 72 123 vlineto
          72 21 53 47 28 58 -156 48 rcurveline
          -31 -16 -36 -21 -40 hhcurveto
          -65 -52 55 83 82 52 54 65 39 32 -18 -32 20 hvcurveto
          156 47 -30 58 -51 46 -71 22 rlinecurve
          123 -72 -111 vlineto
          hintmask 10011110
          1 -7 -8 0 -7 hhcurveto
          -13 -13 -1 -1 -12 hvcurveto
          hintmask 10101110
          112 -72 -129 vlineto
          -110 -40 -62 -101 -112 vvcurveto
          -112 62 -101 110 -41 vhcurveto
          endchar
        </CharString>
        <CharString name="comma">
          -416 -114 -21 298 -20 hstem
          54 135 vstem
          142 -135 63 callsubr
          -31 -137 rlineto
          endchar
        </CharString>
        <CharString name="commaaccent">
          -439 4 callgsubr
          hstem
          62 134 vstem
          149 -90 callsubr
          endchar
        </CharString>
        <CharString name="copyright">
          185 -7 56 65 135 211 135 64 56 hstem
          41 61 65 164 411 62 vstem
          418 -7 rmoveto
          222 164 155 207 206 -164 154 -222 -217 -160 -154 -206 -207 160 -155 217 hvcurveto
          56 vmoveto
          -181 -135 135 171 170 136 134 180 186 138 -134 -171 -180 -142 -125 -182 hvcurveto
          10 65 rmoveto
          117 81 61 75 35 hvcurveto
          -155 47 rlineto
          -30 -17 -30 -18 -33 hhcurveto
          -48 -47 38 67 61 38 45 56 30 31 -14 -34 18 hvcurveto
          156 48 rlineto
          81 -39 -81 54 -114 hhcurveto
          -169 -90 -116 -125 -132 99 -108 162 hvcurveto
          endchar
        </CharString>
        <CharString name="currency">
          -99 128 -21 42 97 183 98 45 -20 hstem
          82 115 168 115 vstem
          107 572 rmoveto
          -63 -62 67 -68 rlineto
          -19 -30 -10 -36 -38 vvcurveto
          -39 11 -36 19 -31 vhcurveto
          -68 -68 58 -57 72 68 rlineto
          -16 29 36 -10 42 hhcurveto
          41 35 9 16 29 hvcurveto
          72 -67 57 57 -67 66 rlineto
          21 31 11 37 40 vvcurveto
          38 -11 38 -20 30 vhcurveto
          66 66 -62 62 -69 -70 rlineto
          15 -29 -34 10 -40 hhcurveto
          -41 -35 -10 -16 -29 hvcurveto
          21 -164 rmoveto
          56 36 36 48 48 36 -36 -55 -55 -36 -37 -48 -48 -36 37 54 vhcurveto
          endchar
        </CharString>
        <CharString name="d">
          -5 -10 -5 callsubr
          235 160 hintmask 10111100
          273 -10 -29 callgsubr
          hintmask 01111100
          36 callgsubr
          -83 callgsubr
          hintmask 10111100
          -20 callsubr
          -81 callgsubr
        </CharString>
        <CharString name="d.alt">
          56 callgsubr
          25 165 235 160 hintmask 01111100
          585 hmoveto
          730 -160 -291 vlineto
          58 -33 -62 38 -74 hhcurveto
          -134 -97 -119 -153 hvcurveto
          hintmask 10111100
          -156 103 -117 145 71 50 30 56 32 vhcurveto
          hintmask 01111100
          -76 vlineto
          198 vmoveto
          hintmask 10111100
          -45 -21 -44 -28 -46 hhcurveto
          -72 -53 57 78 73 49 66 68 48 51 -37 -54 20 hvcurveto
          endchar
        </CharString>
        <CharString name="dagger">
          -176 -109 -21 329 144 432 -20 hstem
          166 152 vstem
          318 -130 rmoveto
          329 131 144 -131 432 -152 -432 -132 -144 132 -329 vlineto
          endchar
        </CharString>
        <CharString name="daggerdbl">
          -156 -109 -21 209 144 112 144 296 -20 hstem
          176 152 vstem
          328 -130 rmoveto
          209 131 144 -131 112 131 144 -131 296 -152 -296 -132 -144 132 -112 -132 -144 132 -209 vlineto
          endchar
        </CharString>
        <CharString name="dcaron">
          -5 -10 -5 callsubr
          235 160 hintmask 10111100
          806 730 -102 callgsubr
          -438 -582 -29 callgsubr
          hintmask 01111100
          36 callgsubr
          -83 callgsubr
          hintmask 10111100
          -20 callsubr
          -81 callgsubr
        </CharString>
        <CharString name="dcroat">
          -5 -10 135 -112 -21 407 136 53 94 48 46 callsubr
          hintmask 10111110
          273 -10 -29 callgsubr
          hintmask 01111110
          36 callgsubr
          18 21 2 6 29 -59 callgsubr
          -25 2 -9 11 32 vvcurveto
          408 61 94 -61 48 -160 -48 -93 -94 93 -149 vlineto
          58 -32 -63 38 -73 hhcurveto
          -136 -96 -119 -153 hvcurveto
          hintmask 10111110
          -20 callsubr
          -81 callgsubr
        </CharString>
        <CharString name="ddotbelow">
          -5 -27 callsubr
          57 -5 callsubr
          77 144 14 160 hintmask 11011111
          411 -29 callsubr
          6 194 -29 callgsubr
          hintmask 10111111
          36 callgsubr
          -83 callgsubr
          hintmask 11011111
          -20 callsubr
          -81 callgsubr
        </CharString>
        <CharString name="degree">
          -367 504 220 hstem
          36 220 vstem
          36 618 rmoveto
          -67 46 -47 64 64 46 45 69 60 -46 46 -64 -64 -46 -46 -60 vhcurveto
          85 20 rmoveto
          7 6 9 3 10 hhcurveto
          9 10 -3 -7 5 hvcurveto
          7 -6 3 -8 -10 vvcurveto
          -8 -3 -11 -7 -5 vhcurveto
          -7 -5 -10 -4 -9 hhcurveto
          -10 -9 4 7 -6 hvcurveto
          -6 5 -4 10 9 vvcurveto
          10 4 8 6 6 vhcurveto
          endchar
        </CharString>
        <CharString name="dieresis">
          -151 593 129 hstem
          83 76 callsubr
          215 593 -62 callsubr
        </CharString>
        <CharString name="divide">
          -160 38 143 59 127 59 143 hstem
          183 134 cntrmask 11100000
          317 426 rmoveto
          143 -134 -143 vlineto
          134 -388 rmoveto
          143 -134 -143 vlineto
          269 202 rmoveto
          127 -404 -127 vlineto
          endchar
        </CharString>
        <CharString name="dollar">
          -18 -102 -21 116 147 675 -20 hstem
          63 169 70 58 66 176 vstem
          581 638 rmoveto
          -56 32 -79 36 -86 8 rrcurveto
          101 -69 -101 vlineto
          -127 -12 -101 -79 -138 vvcurveto
          -107 60 -49 131 -40 vhcurveto
          48 -14 rlineto
          -133 vlineto
          -97 13 -90 55 -10 13 -72 -143 rcurveline
          71 -48 95 -30 92 -8 rrcurveto
          -117 69 116 vlineto
          127 6 115 58 152 vvcurveto
          132 -85 47 -136 36 vhcurveto
          -32 8 rlineto
          136 vlineto
          76 -11 76 -45 8 -10 rrcurveto
          -83 -309 rmoveto
          -32 -25 -19 -52 -2 vhcurveto
          120 vlineto
          47 -16 30 -17 -34 vvcurveto
          -194 318 rmoveto
          34 24 20 46 4 vhcurveto
          -123 vlineto
          -47 15 -23 17 33 vvcurveto
          endchar
        </CharString>
        <CharString name="dotaccent">
          -415 593 137 hstem
          50 144 vstem
          194 593 -92 callgsubr
          endchar
        </CharString>
        <CharString name="dotbelow">
          -415 -27 callsubr
          hstem
          50 144 vstem
          194 -29 callsubr
          endchar
        </CharString>
        <CharString name="dotlessi">
          0 callgsubr
          55 -12 callgsubr
          endchar
        </CharString>
        <CharString name="dotlessj">
          -202 138 589 -34 callgsubr
          endchar
        </CharString>
        <CharString name="e">
          -78 callsubr
          hstem
          24 170 cntrmask 11100000
          306 -10 -94 callgsubr
        </CharString>
        <CharString name="eacute">
          -78 callsubr
          40 callsubr
          170 vstem
          445 730 -102 callgsubr
          -44 -582 -94 callgsubr
        </CharString>
        <CharString name="ebreve">
          -78 callsubr
          48 -18 callsubr
          24 170 hintmask 11110100
          306 -10 32 callgsubr
          -47 callsubr
          -113 341 rmoveto
          hintmask 11101100
          -93 callsubr
          hintmask 11110100
          -55 callgsubr
        </CharString>
        <CharString name="ecaron">
          -55 -10 115 108 99 0 108 115 51 84 callgsubr
          24 170 hintmask 11011100
          137 693 -100 callsubr
          87 -740 32 callgsubr
          -58 -54 38 70 -5 hvcurveto
          388 hlineto
          2 13 2 19 19 vvcurveto
          143 -101 128 -179 -179 -103 -127 -151 -142 105 -125 177 vhcurveto
          -115 322 rmoveto
          hintmask 10111100
          -89 callsubr
          endchar
        </CharString>
        <CharString name="ecircumflex">
          -78 callsubr
          40 callsubr
          170 vstem
          219 586 -104 callsubr
          169 -632 -94 callgsubr
        </CharString>
        <CharString name="edblgrave">
          -78 callsubr
          40 callsubr
          170 vstem
          378 572 -98 callsubr
          190 -740 -94 callgsubr
        </CharString>
        <CharString name="edieresis">
          -79 callsubr
        </CharString>
        <CharString name="edotaccent">
          -78 callsubr
          58 137 hstem
          24 170 39 144 vstem
          306 -10 32 callgsubr
          -47 callsubr
          -40 281 -92 callgsubr
          endchar
        </CharString>
        <CharString name="edotbelow">
          -55 -27 callsubr
          57 115 108 99 108 115 hstem
          24 170 34 144 vstem
          306 -10 32 callgsubr
          -47 callsubr
          -45 -516 -92 callgsubr
          endchar
        </CharString>
        <CharString name="egrave">
          -78 callsubr
          196 -20 hstem
          24 170 vstem
          306 -10 32 callgsubr
          -47 callsubr
          -158 261 -88 callgsubr
        </CharString>
        <CharString name="eight">
          -84 callsubr
        </CharString>
        <CharString name="eight.denominator">
          -230 -6 -45 callsubr
          128 -68 callsubr
          -15 -23 -24 -40 -14 -36 -36 -39 14 24 vhcurveto
          endchar
        </CharString>
        <CharString name="eight.lnum">
          -84 callsubr
        </CharString>
        <CharString name="eight.numerator">
          -230 294 -45 callsubr
          428 -68 callsubr
          -14 -24 80 callsubr
        </CharString>
        <CharString name="eightinferior">
          -230 -93 -45 callsubr
          41 49 callgsubr
          hintmask 11101100
          -79 callgsubr
          hintmask 11110010
          -44 -21 -38 -27 -52 vvcurveto
          -77 82 -59 102 100 85 56 78 vhcurveto
          -94 10 rmoveto
          -30 -44 -21 -46 -44 -47 20 31 29 42 21 48 46 45 -19 -31 vhcurveto
          hintmask 11101100
          -58 callsubr
        </CharString>
        <CharString name="eightsuperior">
          -230 381 -45 callsubr
          515 rmoveto
          49 -35 32 -47 21 vhcurveto
          hintmask 11101100
          -79 callgsubr
          hintmask 11110010
          -44 -20 -38 -28 -90 callgsubr
          hintmask 11101100
          -166 164 rmoveto
          23 35 15 40 40 36 -14 -24 80 callsubr
        </CharString>
        <CharString name="einvertedbreve">
          -78 callsubr
          48 -11 callgsubr
          24 170 hintmask 11101100
          308 660 rmoveto
          hintmask 11110100
          -94 callsubr
          hintmask 11101100
          -19 callsubr
          -2 -670 -94 callgsubr
        </CharString>
        <CharString name="ellipsis">
          -1 0 163 hstem
          54 131 79 130 79 130 vstem
          185 hmoveto
          163 -131 -163 vlineto
          340 hmoveto
          29 callsubr
          339 hmoveto
          29 callsubr
          endchar
        </CharString>
        <CharString name="emacron">
          -78 callsubr
          86 97 hstem
          24 170 vstem
          306 -10 32 callgsubr
          -47 callsubr
          40 309 -38 callsubr
        </CharString>
        <CharString name="emdash">
          278 203 144 hstem
          883 203 rmoveto
          144 -829 -144 vlineto
          endchar
        </CharString>
        <CharString name="emspace">
          275 endchar
        </CharString>
        <CharString name="endash">
          26 callgsubr
        </CharString>
        <CharString name="eng">
          -48 53 callgsubr
          85 -7 callgsubr
          -10 -13 callgsubr
          hintmask 11101010
          368 -202 rmoveto
          109 84 84 121 hvcurveto
          333 vlineto
          88 -21 111 -137 -92 -74 -36 -62 -38 vhcurveto
          hintmask 11011010
          -19 callgsubr
          hintmask 11100110
          160 301 hlineto
          54 19 52 39 44 hhcurveto
          42 29 -30 -69 hvcurveto
          -304 vlineto
          -33 -23 -22 -30 -20 -20 7 14 -14 vhcurveto
          -67 -109 rlineto
          -33 39 49 -17 53 hhcurveto
          endchar
        </CharString>
        <CharString name="enspace">
          -48 endchar
        </CharString>
        <CharString name="eogonek">
          -55 -184 -21 196 114 108 99 108 115 hstem
          24 170 21 98 vstem
          347 62 callsubr
          25 28 49 30 vhcurveto
          80 19 60 48 31 63 -136 38 rcurveline
          -38 -15 -49 -25 -47 hhcurveto
          -58 -54 38 70 -5 hvcurveto
          388 hlineto
          2 13 2 19 19 vvcurveto
          143 -101 128 -179 -179 -103 -127 -151 -137 97 -120 164 -9 vhcurveto
          -47 -32 -23 -36 -35 -43 callgsubr
          -156 517 rmoveto
          -89 callsubr
          endchar
        </CharString>
        <CharString name="equal">
          -224 124 102 100 102 hstem
          376 124 rmoveto
          102 -317 -102 vlineto
          317 202 rmoveto
          102 -317 -102 vlineto
          endchar
        </CharString>
        <CharString name="estimated">
          -46 -10 51 200 54 188 52 hstem
          31 136 292 135 vstem
          312 41 rmoveto
          -56 -54 26 37 -35 hvcurveto
          137 427 vlineto
          164 -114 130 -168 -167 -114 -125 -150 -145 112 -125 169 107 76 36 47 50 vhcurveto
          -33 39 rlineto
          -38 -40 -64 -33 -96 hhcurveto
          442 vmoveto
          57 54 -25 -49 36 hvcurveto
          -114 -292 115 vlineto
          48 35 54 25 56 hhcurveto
          endchar
        </CharString>
        <CharString name="eth">
          -42 -10 135 219 128 258 -20 hstem
          27 164 233 165 vstem
          493 712 rmoveto
          -76 -41 -27 23 -30 20 -33 16 rlinecurve
          -199 hlineto
          69 -36 55 -37 44 -39 -77 -41 rcurveline
          45 -61 85 46 38 -48 24 -51 13 -55 rlinecurve
          39 -37 -58 25 -62 hhcurveto
          -135 -105 -106 -132 -141 118 -103 161 169 114 113 188 113 -42 120 -76 92 hvcurveto
          66 35 rlineto
          -346 -417 rmoveto
          64 49 46 68 68 48 -45 -63 -63 -48 -48 -69 -67 -49 46 63 vhcurveto
          endchar
        </CharString>
        <CharString name="etilde">
          -78 callsubr
          53 -36 callsubr
          24 170 hintmask 11110110
          306 -10 32 callgsubr
          -47 callsubr
          -49 276 -89 callgsubr
          hintmask 11101010
          -95 callsubr
          hintmask 11110110
          -50 callgsubr
        </CharString>
        <CharString name="exclam">
          -326 0 166 551 -20 hstem
          86 5 callsubr
          246 282 rmoveto
          435 -160 -435 vlineto
          160 -282 rmoveto
          166 -160 -166 vlineto
          endchar
        </CharString>
        <CharString name="exclamdown">
          -328 15 -21 551 166 hstem
          85 5 callsubr
          85 429 rmoveto
          -435 160 435 vlineto
          -160 282 rmoveto
          -166 160 166 vlineto
          endchar
        </CharString>
        <CharString name="f">
          -274 21 48 callsubr
          hstem
          89 5 callsubr
          249 hmoveto
          361 122 121 -122 49 3 callgsubr
          -43 4 callsubr
          -361 vlineto
          endchar
        </CharString>
        <CharString name="f_f">
          6 21 -21 361 -3 callgsubr
          hintmask 11011100
          587 605 rmoveto
          25 26 -8 -8 20 hvcurveto
          29 120 rlineto
          17 -43 -44 14 -46 hhcurveto
          -64 -47 -25 -39 -32 hvcurveto
          hintmask 11101100
          18 -47 -45 11 -43 hhcurveto
          -116 -70 -86 -120 -1 hvcurveto
          -17 4 callsubr
          35 callsubr
          115 35 callsubr
          127 121 -127 49 vlineto
          hintmask 11011100
          42 19 32 44 vhcurveto
          -223 -123 rmoveto
          -115 22 hlineto
          hintmask 11101100
          40 18 26 45 callsubr
        </CharString>
        <CharString name="f_f_i">
          209 21 -21 361 -3 callgsubr
          129 161 hintmask 11011110
          89 hmoveto
          160 361 115 35 callsubr
          129 -361 161 482 -290 49 hlineto
          42 24 32 56 42 54 -24 -34 38 vhcurveto
          62 121 rlineto
          46 -74 -71 26 -68 hhcurveto
          -77 -60 -25 -39 -39 hvcurveto
          hintmask 11101110
          18 -47 -45 11 -43 hhcurveto
          -116 -71 -88 -118 hvcurveto
          -17 4 callsubr
          vlineto
          160 121 rmoveto
          22 vlineto
          39 18 27 45 callsubr
        </CharString>
        <CharString name="f_f_l">
          301 0 134 -121 -21 369 -3 callgsubr
          154 160 hintmask 01110111
          824 -8 rmoveto
          65 70 26 2 3 hvcurveto
          -21 129 rlineto
          hintmask 10101111
          -2 -33 -15 -22 hhcurveto
          -34 -12 33 25 hvcurveto
          336 vlineto
          128 -75 84 -165 -81 -65 -21 -43 -41 vhcurveto
          hintmask 10110111
          18 -46 -44 11 -46 hhcurveto
          -113 -73 -86 -120 hvcurveto
          -17 4 callsubr
          35 callsubr
          115 35 callsubr
          79 121 -79 21 vlineto
          hintmask 01101111
          55 20 47 56 65 13 -45 -56 vhcurveto
          -394 vlineto
          -64 54 -54 92 vhcurveto
          -575 490 rmoveto
          23 vlineto
          hintmask 10110111
          38 20 27 41 17 22 -3 -8 18 vhcurveto
          -2 -6 -1 -63 -8 vvcurveto
          endchar
        </CharString>
        <CharString name="f_i">
          -66 21 48 callsubr
          hstem
          89 160 130 5 callsubr
          89 hmoveto
          160 361 130 -361 160 482 -290 49 hlineto
          42 26 32 50 47 51 -23 -35 40 vhcurveto
          62 121 rlineto
          45 -69 -65 27 -76 hhcurveto
          -137 -89 -91 -124 hvcurveto
          -43 4 callsubr
          vlineto
          endchar
        </CharString>
        <CharString name="f_l">
          26 -8 142 -113 48 callsubr
          hstemhm
          89 160 154 160 hintmask 10111100
          667 149 rmoveto
          -2 -33 -15 -23 hhcurveto
          -33 -13 33 25 hvcurveto
          336 vlineto
          128 -74 84 -166 -142 -92 -66 -134 vhcurveto
          -58 4 callsubr
          vlineto
          hintmask 01111100
          35 callsubr
          79 121 -79 23 vlineto
          59 1 20 41 59 hhcurveto
          62 12 -43 -65 hvcurveto
          -387 vlineto
          hintmask 10111100
          -64 55 -54 91 65 71 26 2 2 vhcurveto
          endchar
        </CharString>
        <CharString name="five">
          -101 -149 85 callsubr
          365 164 vstem
          294 322 rmoveto
          -38 -24 -9 -9 -8 hvcurveto
          20 17 callgsubr
          18 33 17 36 hhcurveto
          55 39 -38 -57 -60 -41 -39 -62 -53 -55 30 47 -38 hvcurveto
          -89 -99 rlineto
          -74 43 88 -44 103 hhcurveto
          157 111 74 callgsubr
        </CharString>
        <CharString name="five.denominator">
          -256 -6 90 127 69 58 93 hstem
          282 95 vstem
          209 280 rmoveto
          -33 -23 -7 -30 callgsubr
          -64 rlineto
          -43 29 callgsubr
          79 61 86 82 -72 57 -96 hvcurveto
          endchar
        </CharString>
        <CharString name="five.lnum">
          -84 -9 85 callsubr
          374 164 vstem
          303 462 rmoveto
          -39 -23 -9 -9 -9 hvcurveto
          21 17 callgsubr
          17 34 17 36 hhcurveto
          54 40 -39 -57 -59 -42 -39 -61 -53 -56 30 47 -37 hvcurveto
          -90 -99 rlineto
          -74 44 88 -44 103 hhcurveto
          156 112 74 callgsubr
        </CharString>
        <CharString name="five.numerator">
          -257 294 66 callgsubr
          -58 callgsubr
          endchar
        </CharString>
        <CharString name="fiveeighths">
          361 50 callsubr
          30 90 -44 90 81 69 58 93 hstemhm
          292 96 228 -32 callsubr
          hintmask 0111011110010000
          220 -58 callgsubr
          51 -589 -93 callgsubr
          785 72 49 callgsubr
          hintmask 1010111101100000
          -79 callgsubr
          hintmask 1011011110010000
          -44 -21 -38 -27 -90 callgsubr
          hintmask 1010111101100000
          -58 callsubr
        </CharString>
        <CharString name="fiveinferior">
          -257 -93 66 callgsubr
          193 rmoveto
          -34 -22 -7 -6 -13 hvcurveto
          21 71 rlineto
          182 93 -249 hlineto
          -14 -78 -30 -104 -15 -82 rrcurveto
          81 -3 callsubr
          -20 -45 -21 callgsubr
          -64 rlineto
          -43 29 callgsubr
          80 61 86 82 -73 57 -95 hvcurveto
          endchar
        </CharString>
        <CharString name="fivesuperior">
          -256 381 90 127 70 57 93 hstem
          282 95 vstem
          209 668 rmoveto
          -33 -23 -8 -30 callgsubr
          -63 rlineto
          -44 29 callgsubr
          79 61 87 81 -72 58 -96 hvcurveto
          endchar
        </CharString>
        <CharString name="florin">
          -103 53 callgsubr
          407 121 141 135 hstem
          202 5 callsubr
          169 -202 rmoveto
          108 85 80 117 hvcurveto
          348 122 121 -122 67 3 callgsubr
          -61 4 callsubr
          -352 18 callsubr
          endchar
        </CharString>
        <CharString name="four">
          -81 -106 -21 137 144 417 -20 hstemhm
          293 160 -141 141 hintmask 11110000
          453 -127 rmoveto
          137 88 144 -88 417 -109 vlineto
          -326 -418 rlineto
          -143 275 -137 vlineto
          hintmask 11101000
          19 458 rmoveto
          -177 -136 vlineto
          endchar
        </CharString>
        <CharString name="four.denominator">
          -239 1 -25 callsubr
          1 rmoveto
          hintmask 01110000
          -64 callsubr
          vlineto
          hintmask 10110000
          80 callgsubr
          endchar
        </CharString>
        <CharString name="four.lnum">
          -68 22 -21 149 143 418 -20 hstemhm
          305 160 -142 142 hintmask 11110000
          465 1 rmoveto
          149 88 143 -88 418 -109 vlineto
          -330 -418 rlineto
          -143 279 -149 vlineto
          hintmask 11101000
          18 470 rmoveto
          -178 -138 vlineto
          endchar
        </CharString>
        <CharString name="four.numerator">
          -239 301 -25 callsubr
          301 rmoveto
          hintmask 01110000
          -64 callsubr
          vlineto
          hintmask 10110000
          80 callgsubr
          endchar
        </CharString>
        <CharString name="fourinferior">
          -240 -86 -25 callsubr
          -86 rmoveto
          hintmask 01110000
          -64 callsubr
          vlineto
          hintmask 10110000
          80 callgsubr
          endchar
        </CharString>
        <CharString name="foursuperior">
          -239 388 -25 callsubr
          388 rmoveto
          hintmask 01110000
          -64 callsubr
          vlineto
          hintmask 10110000
          -88 vlineto
          4 318 rmoveto
          -139 -134 vlineto
          endchar
        </CharString>
        <CharString name="fraction">
          -440 12 -21 728 -20 hstem
          -125 -9 -25 callgsubr
        </CharString>
        <CharString name="franc">
          -51 21 -21 91 105 84 133 153 144 hstem
          107 164 vstem
          271 hmoveto
          91 109 105 -109 84 58 callgsubr
          -514 -74 -105 74 -91 vlineto
          endchar
        </CharString>
        <CharString name="g">
          -42 callgsubr
          68 callgsubr
          -139 139 hintmask 11011100
          -31 callgsubr
          hintmask 11011010
          -139 -86 hlineto
          hintmask 11101100
          -96 callgsubr
          endchar
        </CharString>
        <CharString name="gacute">
          -42 callgsubr
          225 64 callsubr
          hintmask 11011110
          458 730 -102 callgsubr
          -104 -574 -92 callsubr
          hintmask 11011101
          -139 -86 hlineto
          hintmask 11101110
          -96 callgsubr
          endchar
        </CharString>
        <CharString name="gbreve">
          -42 callgsubr
          78 70 -70 147 -9 callsubr
          hintmask 1101101100000000
          -31 callgsubr
          hintmask 1101101010000000
          -139 -86 hlineto
          hintmask 1110101100000000
          -96 callgsubr
          32 528 rmoveto
          hintmask 1110011100000000
          -93 callsubr
          hintmask 1110101100000000
          -55 callgsubr
        </CharString>
        <CharString name="gcircumflex">
          -42 callgsubr
          225 64 callsubr
          hintmask 11011110
          261 586 -104 callsubr
          80 -624 -92 callsubr
          hintmask 11011101
          -139 -86 hlineto
          hintmask 11101110
          -96 callgsubr
          endchar
        </CharString>
        <CharString name="gcommaaccent">
          -42 callgsubr
          78 166 hstemhm
          26 163 75 134 27 160 -139 139 hintmask 1101111100000000
          311 749 rmoveto
          -47 -67 rlineto
          -99 134 99 -48 vlineto
          31 67 rlineto
          -122 -751 -92 callsubr
          hintmask 1101111010000000
          -139 -86 hlineto
          hintmask 1110111100000000
          -96 callgsubr
          endchar
        </CharString>
        <CharString name="gdotaccent">
          -42 callgsubr
          88 137 hstemhm
          26 163 85 144 7 160 -139 139 hintmask 1101111100000000
          -31 callgsubr
          hintmask 1101111010000000
          -139 -86 hlineto
          hintmask 1110111100000000
          -96 callgsubr
          104 468 -92 callgsubr
          endchar
        </CharString>
        <CharString name="germandbls">
          -99 -6 147 -120 -21 319 143 117 135 hstemhm
          55 152 43 235 -152 152 -117 168 hintmask 10111100
          250 -6 rmoveto
          hintmask 10111001
          143 1 143 54 163 vvcurveto
          95 -50 69 -81 27 vhcurveto
          hintmask 01111010
          42 18 38 59 68 vvcurveto
          104 -85 62 -115 -131 -99 -80 -109 vhcurveto
          -525 152 497 vlineto
          30 10 52 54 18 44 -9 -50 -34 -21 -24 -38 vhcurveto
          -21 -143 22 hlineto
          hintmask 10111001
          43 50 -29 -59 hvcurveto
          hintmask 10111100
          -61 -51 -29 -67 vhcurveto
          endchar
        </CharString>
        <CharString name="grave">
          -390 8 callgsubr
          142 572 -88 callgsubr
        </CharString>
        <CharString name="greater">
          -141 -12 -21 582 -20 hstem
          486 293 rmoveto
          -423 256 rlineto
          -170 vlineto
          191 -120 -191 -113 rlineto
          -179 vlineto
          423 250 rlineto
          endchar
        </CharString>
        <CharString name="greaterequal">
          -177 16 127 486 -20 hstem
          436 48 callgsubr
          364 446 rmoveto
          -362 167 rlineto
          -154 vlineto
          199 -68 -199 -62 rlineto
          -154 vlineto
          362 153 rlineto
          endchar
        </CharString>
        <CharString name="guillemotleft">
          20 60 -21 447 -20 hstem
          33 217 -36 callgsubr
          319 -76 -36 callgsubr
          endchar
        </CharString>
        <CharString name="guillemotright">
          20 60 -21 447 -20 hstem
          646 293 -37 callsubr
          -319 76 -37 callsubr
          endchar
        </CharString>
        <CharString name="guilsinglleft">
          -299 60 -21 447 -20 hstem
          33 217 -36 callgsubr
          endchar
        </CharString>
        <CharString name="guilsinglright">
          -299 60 -21 447 -20 hstem
          327 293 -37 callsubr
          endchar
        </CharString>
        <CharString name="h">
          -28 callsubr
          91 callsubr
          55 160 186 5 callsubr
          561 336 -13 callsubr
          293 -160 -730 -51 callgsubr
          endchar
        </CharString>
        <CharString name="hbar">
          -28 callsubr
          53 94 48 -20 hstem
          55 160 186 5 callsubr
          561 336 -13 callsubr
          151 117 94 -117 48 -160 -48 -38 -94 38 -588 -51 callgsubr
          endchar
        </CharString>
        <CharString name="hcircumflex">
          -28 callsubr
          194 -20 21 -20 hstemhm
          55 160 186 160 hintmask 11101100
          324 589 rmoveto
          72 61 72 -61 70 35 -93 105 rlineto
          -97 hlineto
          -94 -105 rlineto
          307 -288 -13 callsubr
          hintmask 11011100
          293 -160 -730 -51 callgsubr
          endchar
        </CharString>
        <CharString name="hdotbelow">
          -47 37 callsubr
          394 141 91 callsubr
          55 160 21 144 21 160 cntrmask 00001110
          561 336 -13 callsubr
          293 -160 -730 -51 callgsubr
          -181 -29 callsubr
          endchar
        </CharString>
        <CharString name="hungarumlaut">
          -278 8 callgsubr
          194 730 -72 callgsubr
          endchar
        </CharString>
        <CharString name="hyphen">
          -243 203 144 hstem
          362 203 rmoveto
          144 -308 -144 vlineto
          endchar
        </CharString>
        <CharString name="i">
          21 -10 callgsubr
          endchar
        </CharString>
        <CharString name="iacute">
          -33 callsubr
          55 5 callsubr
          275 730 -102 callgsubr
          35 -572 rmoveto
          -62 callgsubr
          endchar
        </CharString>
        <CharString name="ibreve">
          21 -21 525 7 callsubr
          55 160 hintmask 11101000
          215 hmoveto
          -62 callgsubr
          79 653 rmoveto
          hintmask 11011000
          -93 callsubr
          hintmask 11101000
          -55 callgsubr
        </CharString>
        <CharString name="icircumflex">
          -33 callsubr
          55 5 callsubr
          50 586 -104 callsubr
          247 -622 rmoveto
          -62 callgsubr
          endchar
        </CharString>
        <CharString name="idblgrave">
          -33 callsubr
          55 5 callsubr
          213 572 -98 callsubr
          264 -730 rmoveto
          -62 callgsubr
          endchar
        </CharString>
        <CharString name="idieresis">
          -56 callgsubr
          89 129 hstemhm
          -36 85 callgsubr
          96 594 -101 callsubr
          hintmask 11101000
          41 -594 rmoveto
          -62 callgsubr
          endchar
        </CharString>
        <CharString name="idotbelow">
          -204 137 88 -10 callgsubr
          150 -789 -92 callgsubr
          endchar
        </CharString>
        <CharString name="igrave">
          -56 callgsubr
          226 -20 hstem
          55 -12 callgsubr
          34 573 -88 callgsubr
        </CharString>
        <CharString name="iinvertedbreve">
          21 -21 525 49 callsubr
          55 160 hintmask 11011000
          135 660 rmoveto
          hintmask 11101000
          -94 callsubr
          hintmask 11011000
          -19 callsubr
          80 -660 rmoveto
          -62 callgsubr
          endchar
        </CharString>
        <CharString name="ij">
          -115 53 callgsubr
          85 -40 callgsubr
          80 145 hstem
          55 160 115 -12 callgsubr
          160 585 rmoveto
          145 -160 -145 vlineto
          242 -787 -99 callsubr
          endchar
        </CharString>
        <CharString name="imacron">
          -56 callgsubr
          116 97 hstem
          55 -12 callgsubr
          233 621 -38 callsubr
        </CharString>
        <CharString name="infinity">
          74 158 119 148 120 hstem
          38 119 417 120 vstem
          212 545 rmoveto
          -99 -75 -86 -107 -106 86 -88 88 85 41 35 41 30 hvcurveto
          -41 31 41 -35 79 hhcurveto
          99 76 86 107 106 -68 88 -106 -83 -39 -39 -46 -32 hvcurveto
          46 -32 -40 39 -82 hhcurveto
          14 -268 rmoveto
          -32 -37 22 53 52 37 21 32 48 21 -34 -41 22 hvcurveto
          -40 -22 -22 -33 -47 hhcurveto
          280 hmoveto
          -45 -23 31 38 -21 hvcurveto
          43 20 21 36 48 hhcurveto
          33 35 -21 -52 -53 -35 -22 -33 hvcurveto
          endchar
        </CharString>
        <CharString name="integral">
          -278 -167 133 721 133 hstem
          128 26 rmoveto
          -39 2 -18 -21 -33 hhcurveto
          -13 -18 6 8 -15 hvcurveto
          -24 -117 rlineto
          -18 41 57 -12 44 hhcurveto
          92 50 49 91 -5 hvcurveto
          -35 654 rlineto
          40 -2 18 20 32 hhcurveto
          14 18 -6 -8 15 hvcurveto
          25 117 rlineto
          18 -42 -57 12 -44 hhcurveto
          -92 -50 -51 -89 5 hvcurveto
          endchar
        </CharString>
        <CharString name="iogonek">
          -184 -21 226 -40 callgsubr
          80 145 hstemhm
          42 98 -85 160 hintmask 11111000
          174 -30 callsubr
          hintmask 11110100
          24 25 28 50 30 vhcurveto
          -7 callsubr
          -525 71 vlineto
          hintmask 11111000
          70 callsubr
          hintmask 11110100
          41 790 rmoveto
          145 -160 -145 vlineto
          endchar
        </CharString>
        <CharString name="itilde">
          -56 callgsubr
          83 -36 callsubr
          55 160 hintmask 11101100
          215 hmoveto
          -62 callgsubr
          143 42 callsubr
          hintmask 11010100
          -95 callsubr
          hintmask 11101100
          -50 callgsubr
        </CharString>
        <CharString name="j">
          -385 81 callsubr
          80 145 hstem
          60 5 callsubr
          27 -202 -99 callsubr
          endchar
        </CharString>
        <CharString name="j.alt">
          -192 -21 798 143 hstem
          55 5 callsubr
          55 -213 rmoveto
          160 730 -160 hlineto
          68 vmoveto
          159 143 -159 hlineto
          endchar
        </CharString>
        <CharString name="jcircumflex">
          81 callsubr
          225 -34 callgsubr
          28 788 -67 callgsubr
        </CharString>
        <CharString name="k">
          -90 -33 callsubr
          55 5 callsubr
          578 hmoveto
          -17 callsubr
        </CharString>
        <CharString name="kcommaaccent">
          -90 4 callgsubr
          68 -40 callgsubr
          225 -20 hstem
          55 160 9 134 vstem
          311 -90 callsubr
          337 213 rmoveto
          -17 callsubr
        </CharString>
        <CharString name="kgreenlandic">
          -90 0 callgsubr
          55 5 callsubr
          578 hmoveto
          -205 299 189 226 rlineto
          -170 hlineto
          -177 -218 rlineto
          218 -160 -525 160 153 vlineto
          56 58 137 -211 rlineto
          endchar
        </CharString>
        <CharString name="l">
          -324 -9 136 603 -20 hstem
          53 5 callsubr
          53 131 -85 callgsubr
          543 -160 vlineto
          endchar
        </CharString>
        <CharString name="l.alt">
          -387 21 -21 730 -20 hstem
          56 5 callsubr
          56 hmoveto
          160 730 -160 hlineto
          endchar
        </CharString>
        <CharString name="lacute">
          -324 -9 136 603 -20 210 -20 hstem
          53 5 callsubr
          271 920 -102 callgsubr
          -123 -631 -85 callgsubr
          543 -160 vlineto
          endchar
        </CharString>
        <CharString name="lcaron">
          -324 -9 136 602 -20 21 -20 hstemhm
          53 160 hintmask 11010000
          447 729 -102 callgsubr
          -299 -440 -85 callgsubr
          hintmask 10110000
          543 -160 vlineto
          endchar
        </CharString>
        <CharString name="lcommaaccent">
          -324 4 callgsubr
          38 136 603 -20 hstemhm
          53 160 -88 134 hintmask 11101000
          212 -90 callsubr
          hintmask 11110000
          -89 344 -85 callgsubr
          543 -160 vlineto
          endchar
        </CharString>
        <CharString name="ldot">
          -230 -9 136 163 166 274 -20 hstem
          53 160 68 131 vstem
          53 131 -85 callgsubr
          543 -160 vlineto
          359 -440 16 callsubr
        </CharString>
        <CharString name="less">
          -141 -12 -21 582 -20 hstem
          32 217 rmoveto
          422 -250 rlineto
          179 vlineto
          -190 113 190 120 rlineto
          170 vlineto
          -422 -256 rlineto
          endchar
        </CharString>
        <CharString name="lessequal">
          -177 16 127 486 -20 hstem
          412 48 callgsubr
          2 328 rmoveto
          362 -153 rlineto
          154 vlineto
          -199 62 199 68 rlineto
          154 vlineto
          -362 -167 rlineto
          endchar
        </CharString>
        <CharString name="lira">
          -107 -15 136 -105 105 -105 121 69 100 39 100 141 129 hstemhm
          83 142 hintmask 01011110
          40 345 rmoveto
          106 hlineto
          5 -13 3 -13 2 -13 rrcurveto
          -116 -100 101 hlineto
          -17 -38 -29 -36 -37 -27 88 callgsubr
          hintmask 10011110
          65 66 -31 61 hhcurveto
          39 46 13 19 32 hvcurveto
          -39 118 rlineto
          -9 -27 -20 -5 -23 hhcurveto
          hintmask 00111110
          -44 -43 16 -46 hhcurveto
          -22 -24 -4 -10 -31 hvcurveto
          28 29 20 27 12 27 rrcurveto
          137 100 -120 hlineto
          -1 13 -3 13 -3 13 rrcurveto
          127 100 -168 hlineto
          -12 25 -9 24 23 11 callgsubr
          -31 9 -29 12 -29 hvcurveto
          -64 hlineto
          endchar
        </CharString>
        <CharString name="logicalnot">
          -36 119 -21 173 144 hstem
          426 135 vstem
          54 415 rmoveto
          -144 372 -173 135 317 vlineto
          endchar
        </CharString>
        <CharString name="lozenge">
          -72 20 -21 730 -20 hstem
          204 729 rmoveto
          -186 -364 186 -366 rlineto
          179 hlineto
          186 366 -186 364 rlineto
          -82 -622 rmoveto
          -132 267 123 245 134 -266 rlineto
          endchar
        </CharString>
        <CharString name="lslash">
          -295 -9 136 603 -20 hstem
          79 5 callsubr
          79 131 -85 callgsubr
          186 vlineto
          122 67 -38 86 -84 -46 rlineto
          250 -160 -337 vlineto
          -84 -46 38 -86 46 25 rlineto
          endchar
        </CharString>
        <CharString name="m">
          276 0 callsubr
          -10 -20 hstemhm
          55 144 -144 160 175 160 175 160 hintmask 11010110
          885 336 rmoveto
          88 -23 111 -133 -83 -68 -37 -65 -40 vhcurveto
          55 -14 -44 47 -87 hhcurveto
          -87 -69 -35 -63 -38 hvcurveto
          hintmask 10110110
          -19 callgsubr
          hintmask 11001110
          160 301 hlineto
          55 18 47 38 42 hhcurveto
          40 28 -30 -69 hvcurveto
          -295 160 301 vlineto
          54 18 46 39 43 hhcurveto
          40 28 -30 -69 52 callgsubr
          endchar
        </CharString>
        <CharString name="macron">
          -231 621 97 hstem
          366 621 -38 callsubr
        </CharString>
        <CharString name="minus">
          -138 277 127 hstem
          462 277 rmoveto
          127 -403 -127 vlineto
          endchar
        </CharString>
        <CharString name="mu">
          25 50 callgsubr
          -112 -21 533 -20 hstemhm
          76 155 194 160 hintmask 11011100
          76 -11 callsubr
          24 2 6 32 -59 callgsubr
          -30 2 -10 54 callsubr
          -44 46 callgsubr
        </CharString>
        <CharString name="multiply">
          -175 103 -21 384 -20 hstem
          341 277 rmoveto
          90 90 -99 99 -90 -90 -90 90 -100 -99 89 -91 -94 -95 99 -99 95 95 96 -95 100 99 rlineto
          endchar
        </CharString>
        <CharString name="n">
          -28 callsubr
          -10 -13 callgsubr
          hintmask 11010100
          561 336 rmoveto
          -63 callgsubr
          hintmask 10110100
          -19 callgsubr
          hintmask 11001100
          -82 callgsubr
          endchar
        </CharString>
        <CharString name="nacute">
          -28 callsubr
          -10 -20 225 -13 callgsubr
          hintmask 11011010
          465 730 -102 callgsubr
          191 -236 rmoveto
          -63 callgsubr
          hintmask 10111010
          -19 callgsubr
          hintmask 11010110
          -82 callgsubr
          endchar
        </CharString>
        <CharString name="napostrophe">
          -28 callsubr
          -10 -20 225 -13 callgsubr
          hintmask 11011010
          166 65 callgsubr
          491 -236 rmoveto
          -63 callgsubr
          hintmask 10111010
          -19 callgsubr
          hintmask 11010110
          -82 callgsubr
          endchar
        </CharString>
        <CharString name="ncaron">
          -28 callsubr
          -10 -20 30 51 144 -13 callgsubr
          hintmask 10111101
          157 693 -100 callsubr
          322 -394 rmoveto
          -63 callgsubr
          -19 callgsubr
          hintmask 11001011
          -82 callgsubr
          endchar
        </CharString>
        <CharString name="ncommaaccent">
          -47 4 callgsubr
          68 -7 callgsubr
          -10 -20 hstemhm
          55 144 -144 160 20 134 32 160 hintmask 11101011
          322 -90 callsubr
          309 549 rmoveto
          -63 callgsubr
          hintmask 11011011
          -19 callgsubr
          hintmask 11100111
          -82 callgsubr
          endchar
        </CharString>
        <CharString name="ndotaccent">
          -28 callsubr
          -10 -20 88 137 hstemhm
          55 144 -144 160 37 144 5 160 hintmask 11011011
          396 593 -92 callgsubr
          309 -257 rmoveto
          -63 callgsubr
          hintmask 10111011
          -19 callgsubr
          hintmask 11010111
          -82 callgsubr
          endchar
        </CharString>
        <CharString name="nine">
          -70 -155 139 104 126 222 135 hstem
          30 152 220 154 vstem
          30 322 rmoveto
          -133 107 -101 141 58 45 21 36 73 callgsubr
          -33 hvcurveto
          -90 -102 rlineto
          -68 57 77 -37 88 hhcurveto
          173 107 78 callgsubr
          -149 -113 -110 -139 hvcurveto
          262 114 rmoveto
          59 51 39 callgsubr
        </CharString>
        <CharString name="nine.denominator">
          -227 -6 88 58 82 76 callgsubr
          194 90 vstem
          27 283 -22 callsubr
          132 -72 76 -5 callgsubr
        </CharString>
        <CharString name="nine.lnum">
          -52 -10 139 103 127 222 135 hstem
          38 153 220 154 vstem
          38 467 rmoveto
          -133 108 -102 141 57 46 21 37 73 callgsubr
          -34 hvcurveto
          -90 -102 rlineto
          -68 57 78 -37 88 hhcurveto
          172 108 78 callgsubr
          -150 -113 -110 -139 hvcurveto
          263 114 rmoveto
          58 52 39 callgsubr
        </CharString>
        <CharString name="nine.numerator">
          -227 290 88 59 81 76 callgsubr
          193 91 vstem
          27 579 24 callsubr
          24 -22 hvcurveto
          -54 -64 -37 callgsubr
        </CharString>
        <CharString name="nineinferior">
          -227 -93 88 58 82 76 callgsubr
          194 90 vstem
          27 196 -22 callsubr
          131 -72 77 -5 callgsubr
        </CharString>
        <CharString name="ninesuperior">
          -227 377 88 59 81 76 callgsubr
          193 91 vstem
          27 666 24 callsubr
          25 -22 hvcurveto
          -54 -65 -37 callgsubr
        </CharString>
        <CharString name="notequal">
          -205 29 -21 123 102 86 102 128 -20 hstem
          68 319 rmoveto
          143 hlineto
          -42 -86 rlineto
          -101 -102 51 hlineto
          -46 -94 57 -29 60 123 rlineto
          196 102 -146 hlineto
          42 86 rlineto
          104 102 -54 hlineto
          48 97 -57 31 -63 -128 rlineto
          -192 hlineto
          endchar
        </CharString>
        <CharString name="ntilde">
          -28 callsubr
          -10 -20 83 92 -46 94 2 -13 callgsubr
          hintmask 1101011010000000
          561 336 rmoveto
          -63 callgsubr
          hintmask 1011011010000000
          -19 callgsubr
          hintmask 1101010110000000
          -82 callgsubr
          -173 42 callsubr
          hintmask 1100101010000000
          -95 callsubr
          hintmask 1101011010000000
          -50 callgsubr
        </CharString>
        <CharString name="numbersign">
          79 21 -21 179 119 114 110 188 -20 hstem
          702 522 rmoveto
          -125 73 callsubr
          -92 73 callsubr
          -146 -110 119 hlineto
          -27 -114 rlineto
          -141 -119 113 hlineto
          -45 -179 rlineto
          128 hlineto
          44 179 rlineto
          91 hlineto
          -44 -179 rlineto
          128 hlineto
          43 179 rlineto
          159 119 -130 hlineto
          27 114 rlineto
          152 hlineto
          -398 -114 rmoveto
          27 114 rlineto
          92 hlineto
          -27 -114 rlineto
          endchar
        </CharString>
        <CharString name="o">
          -49 -71 callgsubr
          hstem
          -52 callgsubr
          vstem
          -76 callgsubr
          endchar
        </CharString>
        <CharString name="oacute">
          -49 57 callsubr
          233 165 vstem
          445 730 -102 callgsubr
          -45 -582 rmoveto
          -106 callgsubr
          endchar
        </CharString>
        <CharString name="obreve">
          -49 -71 callgsubr
          48 -18 callsubr
          -52 callgsubr
          hintmask 11101100
          -76 callgsubr
          116 391 rmoveto
          hintmask 11011100
          -93 callsubr
          hintmask 11101100
          -55 callgsubr
        </CharString>
        <CharString name="ocircumflex">
          -49 57 callsubr
          233 165 vstem
          219 586 -104 callsubr
          168 -632 rmoveto
          -106 callgsubr
          endchar
        </CharString>
        <CharString name="odblgrave">
          -49 57 callsubr
          233 165 vstem
          376 572 -98 callsubr
          191 -740 rmoveto
          -106 callgsubr
          endchar
        </CharString>
        <CharString name="odieresis">
          -49 -71 callgsubr
          59 129 hstemhm
          24 164 -54 -24 callgsubr
          -55 165 hintmask 11101100
          266 594 -101 callsubr
          -39 -604 rmoveto
          hintmask 11110010
          -106 callgsubr
          endchar
        </CharString>
        <CharString name="odotbelow">
          -49 -27 callsubr
          57 -61 callgsubr
          hstem
          24 164 45 144 44 165 vstem
          377 -29 callsubr
          72 194 rmoveto
          -106 callgsubr
          endchar
        </CharString>
        <CharString name="oe">
          343 -10 112 -112 135 88 97 89 136 -115 115 hstemhm
          24 164 233 171 hintmask 10110110
          303 -10 rmoveto
          77 57 30 70 66 hvcurveto
          -68 67 60 -32 78 hhcurveto
          110 96 54 86 43 hvcurveto
          -131 38 rlineto
          -38 -15 -48 -28 -50 hhcurveto
          -65 -51 48 63 -5 hvcurveto
          388 hlineto
          2 13 2 20 16 vvcurveto
          160 -3 -114 113 -161 hhcurveto
          -84 -63 -34 -72 -56 hvcurveto
          69 -50 -66 37 -85 hhcurveto
          -161 -117 -115 -158 -158 117 -114 162 hvcurveto
          hintmask 01110110
          2 135 rmoveto
          -68 -49 56 81 80 49 57 68 68 48 -57 -80 -80 -48 -57 -68 hvcurveto
          282 185 rmoveto
          hintmask 10101110
          65 6 45 45 63 hhcurveto
          62 48 -44 -66 7 hvcurveto
          endchar
        </CharString>
        <CharString name="ogonek">
          -350 -183 -21 227 -20 hstem
          69 98 vstem
          201 -204 rmoveto
          -46 callgsubr
          -47 22 rlineto
          -84 -39 -42 -49 -46 -43 callgsubr
          endchar
        </CharString>
        <CharString name="ograve">
          -49 -71 callgsubr
          196 -20 hstem
          -52 callgsubr
          vstem
          -76 callgsubr
          72 311 -88 callgsubr
        </CharString>
        <CharString name="ohungarumlaut">
          -49 -71 callgsubr
          196 -20 hstem
          -52 callgsubr
          vstem
          329 731 -72 callgsubr
          -111 -583 rmoveto
          -106 callgsubr
          endchar
        </CharString>
        <CharString name="oinvertedbreve">
          -49 -71 callgsubr
          48 -11 callgsubr
          -52 callgsubr
          hintmask 11011100
          304 660 rmoveto
          hintmask 11101100
          -94 callsubr
          hintmask 11011100
          -19 callsubr
          1 -670 rmoveto
          -106 callgsubr
          endchar
        </CharString>
        <CharString name="omacron">
          -49 -71 callgsubr
          86 97 hstem
          -52 callgsubr
          vstem
          458 621 rmoveto
          97 -304 -97 vlineto
          151 -631 rmoveto
          -106 callgsubr
          endchar
        </CharString>
        <CharString name="one">
          -141 0 144 427 -20 hstem
          204 163 vstem
          367 144 rmoveto
          427 -163 vlineto
          -27 -14 -104 -68 -44 hhcurveto
          -148 vlineto
          52 86 40 31 24 hvcurveto
          -255 -142 -144 432 144 vlineto
          endchar
        </CharString>
        <CharString name="one.denominator">
          -309 0 54 callgsubr
          91 -6 callgsubr
        </CharString>
        <CharString name="one.lnum">
          -141 0 144 329 147 96 -20 hstem
          206 163 vstem
          369 144 rmoveto
          572 -163 vlineto
          -4 -2 -90 -92 -72 hhcurveto
          -147 vlineto
          54 88 55 31 22 hvcurveto
          -415 -141 -144 431 144 vlineto
          endchar
        </CharString>
        <CharString name="one.numerator">
          -350 297 92 342 -20 hstemhm
          31 -16 callgsubr
          hintmask 11001000
          219 389 -15 callsubr
        </CharString>
        <CharString name="oneeighth">
          333 50 callsubr
          33 92 -49 90 301 -20 hstemhm
          42 -16 callgsubr
          360 -32 callsubr
          hintmask 0111011000110000
          232 -9 -93 callgsubr
          69 75 callsubr
          hintmask 1011010011010000
          -94 hlineto
          hintmask 1011011001010000
          -8 callgsubr
          hintmask 1011010011010000
          -16 callsubr
          hintmask 1011010101010000
          35 callgsubr
          hintmask 1011011001001000
          660 -261 49 callgsubr
          hintmask 1010111000110000
          -79 callgsubr
          hintmask 1011011001001000
          -44 -21 -38 -27 -90 callgsubr
          hintmask 1010111000110000
          -58 callsubr
        </CharString>
        <CharString name="onehalf">
          333 0 91 -79 -21 306 92 -45 91 296 -20 hstemhm
          39 -16 callgsubr
          621 104 hintmask 1001110010000000
          953 hmoveto
          91 -213 vlineto
          29 28 22 57 17 vhcurveto
          52 15 75 34 88 vvcurveto
          89 -60 50 -108 -100 -69 -37 -32 -24 vhcurveto
          hintmask 1010110010000000
          58 -69 rlineto
          hintmask 1001110010000000
          23 24 41 24 55 hhcurveto
          hintmask 1010110010000000
          49 30 -14 -33 -48 -66 -19 -63 -26 hvcurveto
          -101 -43 -30 -50 -111 vvcurveto
          hintmask 0110110010000000
          -364 -9 -93 callgsubr
          74 75 callsubr
          hintmask 1010100110000000
          -94 hlineto
          hintmask 1010110010000000
          -8 callgsubr
          hintmask 1010100110000000
          -16 callsubr
          hintmask 1010101010000000
          35 callgsubr
          endchar
        </CharString>
        <CharString name="oneinferior">
          -309 -87 54 callgsubr
          4 -6 callgsubr
        </CharString>
        <CharString name="onequarter">
          313 1 179 -168 -21 98 91 117 92 342 -20 hstemhm
          41 -16 callgsubr
          558 89 hintmask 1001110010000000
          876 1 rmoveto
          hintmask 0111110010000000
          -64 callsubr
          vlineto
          hintmask 1001110010000000
          80 callgsubr
          hintmask 0111110010000000
          -388 -189 -93 callgsubr
          35 75 callsubr
          hintmask 1001100110000000
          -94 hlineto
          hintmask 1001110010000000
          -8 callgsubr
          hintmask 1001100110000000
          -16 callsubr
          hintmask 1001101010000000
          35 callgsubr
          endchar
        </CharString>
        <CharString name="onesuperior">
          -350 384 92 342 -20 hstemhm
          31 -16 callgsubr
          hintmask 11001000
          219 476 -15 callsubr
        </CharString>
        <CharString name="onethird">
          337 -6 94 -76 -21 190 85 31 92 -40 87 295 -20 hstemhm
          42 -16 callgsubr
          623 109 -94 94 hintmask 0111011001000000
          219 -9 -93 callgsubr
          82 75 callsubr
          hintmask 1011010011000000
          -94 hlineto
          hintmask 1011011001000000
          -8 callgsubr
          hintmask 1011010011000000
          -16 callsubr
          hintmask 1011010101000000
          35 callgsubr
          hintmask 1011011001000000
          474 -395 rmoveto
          95 94 36 88 54 -40 48 -66 9 hvcurveto
          60 10 36 32 47 vvcurveto
          hintmask 1010111001000000
          67 -76 51 -101 -67 -71 -20 -38 -32 vhcurveto
          60 -76 -43 callsubr
          -9 -28 -33 -32 callgsubr
          hintmask 1011011000100000
          -66 callgsubr
          -51 22 62 -25 83 hhcurveto
          endchar
        </CharString>
        <CharString name="oogonek">
          -49 -184 -21 196 86 callsubr
          23 98 112 165 vstem
          343 62 callsubr
          24 28 49 29 vhcurveto
          131 31 73 110 122 vvcurveto
          145 -103 128 -178 -179 -102 -128 -145 -138 93 -122 164 -11 vhcurveto
          -47 -32 -23 -36 -35 -43 callgsubr
          -155 467 rmoveto
          81 51 56 66 66 50 -55 -82 -81 -50 -56 -66 -67 -50 55 82 vhcurveto
          endchar
        </CharString>
        <CharString name="ordfeminine">
          -212 337 82 -62 -21 175 63 62 78 hstemhm
          37 106 120 112 hintmask 01111100
          158 336 rmoveto
          48 43 23 42 32 hvcurveto
          2 -16 rlineto
          hintmask 10111100
          -31 6 21 -17 41 hhcurveto
          15 17 2 4 20 hvcurveto
          97 vlineto
          -20 1 -8 9 22 vvcurveto
          89 vlineto
          100 -61 53 -107 -57 -50 -15 -32 -47 vhcurveto
          34 -71 rlineto
          26 38 32 14 39 hhcurveto
          46 21 -21 -41 hvcurveto
          -15 vlineto
          10 -20 -27 5 -29 hhcurveto
          -88 -62 -50 -72 hvcurveto
          hintmask 01111100
          -66 52 -50 69 vhcurveto
          hintmask 10111100
          33 83 rmoveto
          -27 -21 19 24 29 26 20 37 18 22 -4 -8 17 hvcurveto
          -33 vlineto
          -9 -6 -10 -9 -7 vhcurveto
          -12 -13 -23 -9 -21 hhcurveto
          endchar
        </CharString>
        <CharString name="ordmasculine">
          -218 336 97 184 97 hstem
          32 115 147 115 vstem
          220 336 rmoveto
          122 67 89 100 45 callgsubr
          hvcurveto
          -73 189 rmoveto
          27 callgsubr
        </CharString>
        <CharString name="oslash">
          -49 -10 135 -109 -21 404 136 -5 -20 hstemhm
          -52 callgsubr
          hintmask 01101100
          120 -5 rmoveto
          30 35 rlineto
          hintmask 10011100
          6 callsubr
          hintmask 01101100
          16 callgsubr
          hintmask 10101100
          -45 callgsubr
          endchar
        </CharString>
        <CharString name="oslashacute">
          -49 -10 135 -109 -21 404 136 -5 -20 220 -20 hstemhm
          -52 callgsubr
          hintmask 01101110
          120 -5 rmoveto
          30 35 rlineto
          hintmask 10011110
          6 callsubr
          hintmask 01101110
          16 callgsubr
          hintmask 10101110
          -45 callgsubr
          257 468 -38 callgsubr
        </CharString>
        <CharString name="otilde">
          -49 -71 callgsubr
          53 -36 callsubr
          -52 callgsubr
          hintmask 11101110
          -76 callgsubr
          180 326 -89 callgsubr
          hintmask 11010110
          -95 callsubr
          hintmask 11101110
          -50 callgsubr
        </CharString>
        <CharString name="p">
          -19 60 callgsubr
          55 67 callgsubr
          163 hintmask 11101010
          387 -65 callsubr
        </CharString>
        <CharString name="paragraph">
          20 -59 -21 671 119 hstem
          34 133 83 136 41 136 vstem
          34 451 rmoveto
          -151 87 -101 129 vhcurveto
          -279 136 279 41 -279 136 671 70 119 -317 vlineto
          -178 -104 -95 -164 hvcurveto
          133 4 rmoveto
          77 32 55 51 4 vhcurveto
          -274 vlineto
          -46 6 -37 52 80 vvcurveto
          260 -138 rmoveto
          -41 274 41 hlineto
          endchar
        </CharString>
        <CharString name="parenleft">
          -334 -38 -21 823 -20 hstem
          30 149 vstem
          30 347 rmoveto
          -138 71 -144 83 -124 vhcurveto
          116 57 rlineto
          -70 125 -51 114 107 vvcurveto
          141 88 171 37 58 vhcurveto
          -122 50 rlineto
          -85 -145 -67 -136 -136 vvcurveto
          endchar
        </CharString>
        <CharString name="parenright">
          -335 -38 -21 823 -20 hstem
          145 149 vstem
          294 347 rmoveto
          136 -67 136 -85 145 vhcurveto
          -122 -50 rlineto
          37 -58 88 -171 -141 vvcurveto
          -107 -51 -114 -70 -125 vhcurveto
          116 -57 rlineto
          83 124 71 144 138 vvcurveto
          endchar
        </CharString>
        <CharString name="partialdiff">
          -80 -10 120 211 119 144 132 hstemhm
          15 154 208 165 -146 146 hintmask 11110100
          253 -10 rmoveto
          176 113 148 246 219 -91 113 -155 -77 -72 -27 -47 -54 hvcurveto
          87 -92 rlineto
          21 25 43 13 36 hhcurveto
          71 41 -55 -123 hvcurveto
          -17 vlineto
          33 -23 -42 18 -54 hhcurveto
          -135 -127 -103 -135 -120 101 -92 137 hvcurveto
          11 120 rmoveto
          -53 -42 44 56 61 50 50 61 hvcurveto
          hintmask 11111000
          54 43 -41 -54 -61 -55 -55 -58 hvcurveto
          endchar
        </CharString>
        <CharString name="percent">
          157 72 callsubr
          34 111 120 111 64 111 121 110 vstem
          205 78 callsubr
          -95 -76 -69 -85 -86 76 -69 95 hvcurveto
          78 vmoveto
          -33 -27 35 42 41 27 35 33 33 27 -34 -42 -42 -27 -35 -33 hvcurveto
          406 -499 rmoveto
          96 75 69 85 86 -75 69 -96 -95 -76 -69 -86 -85 76 -69 95 hvcurveto
          78 vmoveto
          -33 -27 34 42 42 27 35 33 33 28 -35 -42 -41 -28 -35 -33 hvcurveto
          -437 -77 -25 callgsubr
        </CharString>
        <CharString name="period">
          -420 0 163 hstem
          54 131 vstem
          185 hmoveto
          163 -131 -163 vlineto
          endchar
        </CharString>
        <CharString name="periodcentered">
          12 callgsubr
        </CharString>
        <CharString name="perthousand">
          551 72 callsubr
          38 111 120 111 64 111 120 111 51 110 121 111 vstem
          209 78 callsubr
          -96 -75 -69 -85 -86 75 -69 96 hvcurveto
          78 vmoveto
          -32 -28 35 42 41 27 35 33 32 28 -34 -42 -42 -27 -35 -33 hvcurveto
          406 -499 18 callgsubr
          -27 34 42 42 27 35 33 33 27 -35 -42 -41 -27 -35 -33 hvcurveto
          393 -78 18 callgsubr
          -28 34 42 42 28 35 33 32 28 -35 -42 -41 -27 -35 -33 hvcurveto
          -830 -77 -25 callgsubr
        </CharString>
        <CharString name="pi">
          2 -9 136 -106 -21 386 136 hstemhm
          99 159 102 160 hintmask 10111000
          360 386 rmoveto
          -255 vlineto
          -90 53 -50 90 vhcurveto
          hintmask 01111000
          45 57 12 18 40 hvcurveto
          -21 120 rlineto
          hintmask 10111000
          -9 -16 -21 -5 -16 hhcurveto
          -33 -18 21 39 hvcurveto
          199 88 136 -582 -136 73 vlineto
          hintmask 01111000
          -386 159 386 vlineto
          endchar
        </CharString>
        <CharString name="plus">
          -235 208 -21 104 128 104 -20 hstem
          140 144 vstem
          284 419 rmoveto
          104 -144 -104 -94 -128 94 -104 144 104 95 128 vlineto
          endchar
        </CharString>
        <CharString name="plusminus">
          -183 16 127 175 127 121 -20 hstem
          166 144 vstem
          420 48 callgsubr
          256 429 rmoveto
          121 -144 -121 -111 -127 111 -121 144 121 111 127 vlineto
          endchar
        </CharString>
        <CharString name="product">
          65 -69 -21 664 136 hstem
          111 156 190 155 vstem
          457 -90 rmoveto
          155 664 80 136 -661 -136 80 -664 156 664 190 hlineto
          endchar
        </CharString>
        <CharString name="q">
          -19 -192 -21 203 43 callgsubr
          -160 201 -180 139 hintmask 11101100
          87 callgsubr
          -195 vlineto
          -61 52 -42 61 vhcurveto
          hintmask 11101010
          25 35 3 5 28 hvcurveto
          136 vlineto
          hintmask 11011100
          -31 1 -10 11 32 vvcurveto
          550 vlineto
          hintmask 11011001
          -48 callsubr
        </CharString>
        <CharString name="q.alt">
          -19 -193 -21 204 43 callgsubr
          -139 139 hintmask 11011100
          87 callgsubr
          -299 160 739 vlineto
          hintmask 11011010
          -48 callsubr
        </CharString>
        <CharString name="question">
          -169 0 150 440 129 hstem
          112 131 74 139 vstem
          241 245 rmoveto
          57 66 18 56 36 vhcurveto
          61 39 32 49 75 vvcurveto
          144 -111 56 -101 -94 -81 -48 -81 -35 vhcurveto
          103 -72 rlineto
          28 18 30 44 53 hhcurveto
          41 38 -26 -44 -65 -92 -38 -35 -20 hvcurveto
          -70 -38 -11 -53 -61 vvcurveto
          134 -245 rmoveto
          150 -131 -150 vlineto
          endchar
        </CharString>
        <CharString name="questiondown">
          -176 -213 129 440 150 hstem
          30 139 74 131 vstem
          245 261 rmoveto
          -57 -66 -18 -56 -36 vhcurveto
          -61 -39 -32 -49 -75 vvcurveto
          -144 111 -56 101 94 81 48 81 35 vhcurveto
          -103 72 rlineto
          -28 -18 -30 -44 -53 hhcurveto
          -41 -38 26 44 65 92 38 35 20 hvcurveto
          70 38 11 53 61 vvcurveto
          -134 245 rmoveto
          -150 131 150 vlineto
          endchar
        </CharString>
        <CharString name="quotedbl">
          -228 498 228 hstem
          57 135 47 135 vstem
          192 498 rmoveto
          228 -135 -228 vlineto
          317 hmoveto
          228 -135 -228 vlineto
          endchar
        </CharString>
        <CharString name="quotedblbase">
          -179 -119 -21 140 163 hstem
          54 164 44 163 15 callgsubr
          312 hmoveto
          38 136 rlineto
          167 -163 -163 46 vlineto
          -25 -140 rlineto
          endchar
        </CharString>
        <CharString name="quotedblleft">
          -175 457 147 126 -20 hstem
          53 163 53 163 vstem
          91 730 rmoveto
          -4 callgsubr
          112 hmoveto
          -4 callgsubr
          endchar
        </CharString>
        <CharString name="quotedblright">
          -185 488 -21 126 147 hstem
          49 163 53 163 vstem
          174 467 rmoveto
          -4 callsubr
          320 hmoveto
          -4 callsubr
          endchar
        </CharString>
        <CharString name="quoteleft">
          -391 478 -21 273 -20 hstem
          53 163 vstem
          91 730 rmoveto
          -4 callgsubr
          endchar
        </CharString>
        <CharString name="quoteright">
          -401 488 -21 273 -20 hstem
          49 163 vstem
          174 467 rmoveto
          -4 callsubr
          endchar
        </CharString>
        <CharString name="quotesinglbase">
          -387 -119 -21 161 -21 163 -20 hstem
          54 164 15 callgsubr
          endchar
        </CharString>
        <CharString name="quotesingle">
          -409 497 229 hstem
          57 135 vstem
          192 497 rmoveto
          229 -135 -229 vlineto
          endchar
        </CharString>
        <CharString name="r">
          9 callsubr
          hstemhm
          55 147 -147 160 hintmask 10110000
          388 532 rmoveto
          -60 callsubr
          hintmask 11010000
          22 callgsubr
          hintmask 11001000
          -55 callsubr
          endchar
        </CharString>
        <CharString name="racute">
          9 callsubr
          217 21 callsubr
          hintmask 10111000
          386 730 -102 callgsubr
          97 -40 rmoveto
          -60 callsubr
          hintmask 11011000
          22 callgsubr
          hintmask 11010100
          -55 callsubr
          endchar
        </CharString>
        <CharString name="radical">
          -80 21 -21 276 110 404 -20 hstem
          7 276 rmoveto
          111 hlineto
          80 -276 rlineto
          200 hlineto
          152 790 rlineto
          -140 hlineto
          -112 -678 -70 274 rlineto
          -221 hlineto
          endchar
        </CharString>
        <CharString name="rcaron">
          -259 21 -21 388 137 0 61 -53 -20 217 21 callsubr
          hintmask 10101100
          78 693 -100 callsubr
          228 -198 rmoveto
          hintmask 10011100
          -60 callsubr
          hintmask 11001100
          22 callgsubr
          hintmask 11001010
          -55 callsubr
          endchar
        </CharString>
        <CharString name="rcommaaccent">
          -259 4 callgsubr
          68 -21 388 137 8 21 callsubr
          hintmask 11011000
          145 -90 callsubr
          313 745 rmoveto
          -60 callsubr
          hintmask 11101000
          22 callgsubr
          hintmask 11100100
          -55 callsubr
          endchar
        </CharString>
        <CharString name="rdblgrave">
          9 callsubr
          217 21 callsubr
          hintmask 10111000
          296 572 -98 callsubr
          354 -198 rmoveto
          -60 callsubr
          hintmask 11011000
          22 callgsubr
          hintmask 11010100
          -55 callsubr
          endchar
        </CharString>
        <CharString name="rdotbelow">
          -259 37 callsubr
          388 137 8 -20 hstemhm
          55 152 -152 160 hintmask 11011000
          388 532 rmoveto
          -60 callsubr
          hintmask 11101000
          22 callgsubr
          hintmask 11100100
          -55 callsubr
          hintmask 11101000
          -181 -592 -92 callgsubr
          endchar
        </CharString>
        <CharString name="registered">
          185 -7 55 428 98 85 56 hstem
          41 64 149 113 116 111 145 65 vstem
          420 -7 rmoveto
          219 165 155 207 206 -165 154 -219 -220 -159 -154 -206 -207 159 -155 220 hvcurveto
          1 55 rmoveto
          -185 -131 136 170 170 131 135 185 183 135 -135 -171 -177 -139 -128 -179 hvcurveto
          -167 92 rmoveto
          113 140 42 hlineto
          87 -140 rlineto
          125 hlineto
          -99 161 rlineto
          42 23 30 50 52 vvcurveto
          72 -60 76 -83 vhcurveto
          -197 hlineto
          113 -198 rmoveto
          100 71 vlineto
          23 22 -13 -37 -35 -18 -15 -25 hvcurveto
          endchar
        </CharString>
        <CharString name="ring">
          -391 567 47 69 47 hstem
          27 67 80 66 vstem
          27 648 -91 callsubr
          endchar
        </CharString>
        <CharString name="rinvertedbreve">
          9 callsubr
          70 147 -70 70 14 callgsubr
          hintmask 11001100
          218 660 rmoveto
          hintmask 11010100
          -94 callsubr
          hintmask 10101100
          -19 callsubr
          170 -128 rmoveto
          -60 callsubr
          hintmask 11010100
          22 callgsubr
          hintmask 11010010
          -55 callsubr
          endchar
        </CharString>
        <CharString name="s">
          -2 callgsubr
          20 callgsubr
          262 -10 rmoveto
          -101 callgsubr
        </CharString>
        <CharString name="s_t">
          227 -10 113 -113 146 268 131 -111 111 -10 -20 160 69 hstemhm
          38 140 153 146 -130 66 159 160 hintmask 0110011101000000
          849 155 rmoveto
          -9 -21 -27 -10 -23 hhcurveto
          -27 -19 14 35 hvcurveto
          219 106 vlineto
          hintmask 1000111011000000
          121 -106 vlineto
          134 -16 75 -175 -138 -56 -65 -82 -33 7 -25 15 -25 vhcurveto
          hintmask 1001011101000000
          25 -42 -59 6 -31 hhcurveto
          -102 -97 -66 -114 -87 58 -31 129 -33 hvcurveto
          66 -17 40 -5 -36 vvcurveto
          -31 -30 -12 -41 -55 -64 22 40 -66 vhcurveto
          -60 -109 rlineto
          -37 61 104 -29 85 hhcurveto
          124 88 60 114 89 -57 40 -143 29 hvcurveto
          -60 12 -39 8 37 vvcurveto
          32 30 13 39 40 47 -13 -37 61 vhcurveto
          61 101 rlineto
          hintmask 1000111011000000
          -21 23 -22 43 42 vvcurveto
          45 28 37 59 60 11 -37 -103 1 vhcurveto
          -67 hlineto
          hintmask 1010011101000000
          -121 67 -274 vlineto
          -102 66 -38 80 56 61 19 19 43 vhcurveto
          endchar
        </CharString>
        <CharString name="sacute">
          -2 callgsubr
          195 -20 20 callgsubr
          384 730 -102 callgsubr
          -27 -582 rmoveto
          -101 callgsubr
        </CharString>
        <CharString name="scaron">
          -2 callgsubr
          0 51 84 callgsubr
          34 148 141 154 hintmask 10111100
          77 693 -100 callsubr
          103 -740 rmoveto
          132 83 66 104 -1 callgsubr
          hvcurveto
          -2 callsubr
          hintmask 11011100
          -102 callsubr
          rlineto
          -54 60 93 -30 89 hhcurveto
          endchar
        </CharString>
        <CharString name="schwa">
          -55 -10 115 109 98 107 116 hstem
          410 170 vstem
          299 -10 rmoveto
          179 102 126 150 144 -105 125 -177 -121 -90 -59 -81 -41 hvcurveto
          136 -39 rlineto
          38 15 48 25 48 hhcurveto
          58 54 -37 -70 5 hvcurveto
          -388 hlineto
          -2 -13 -2 -20 -17 vvcurveto
          -145 102 -127 179 vhcurveto
          2 115 rmoveto
          -61 -47 43 66 -6 hvcurveto
          226 hlineto
          -66 -6 -44 -43 -62 hhcurveto
          endchar
        </CharString>
        <CharString name="scircumflex">
          -2 callgsubr
          195 -20 20 callgsubr
          159 586 -104 callsubr
          185 -632 rmoveto
          -101 callgsubr
        </CharString>
        <CharString name="sdotbelow">
          -160 -27 callsubr
          57 113 321 111 hstemhm
          34 148 -4 144 1 154 hintmask 11110100
          262 -10 rmoveto
          -86 callgsubr
          hintmask 11101100
          60 -194 -92 callgsubr
          endchar
        </CharString>
        <CharString name="section">
          -118 -88 152 509 142 hstemhm
          41 161 -140 155 118 153 -153 166 hintmask 11101000
          471 223 rmoveto
          6 11 11 29 38 vvcurveto
          129 -120 41 -101 3 vhcurveto
          -35 1 -30 7 39 vvcurveto
          31 25 21 41 43 31 -21 -29 17 vhcurveto
          122 58 rlineto
          49 -34 -67 85 -122 hhcurveto
          -124 -93 -94 -103 -51 22 -40 14 -16 hvcurveto
          hintmask 11010100
          -4 -11 -11 -20 -39 vvcurveto
          -101 72 -72 140 -11 vhcurveto
          28 -2 33 -4 -35 vvcurveto
          -34 -34 -18 -38 -38 -37 15 40 -38 vhcurveto
          -102 -98 rlineto
          -37 31 82 -72 110 hhcurveto
          94 136 55 155 50 -13 33 -17 18 hvcurveto
          -254 96 rmoveto
          14 5 13 8 7 vhcurveto
          -3 5 20 -4 19 hhcurveto
          26 37 -12 -38 -12 -5 -15 -9 -7 hvcurveto
          -33 11 -73 -13 59 vvcurveto
          endchar
        </CharString>
        <CharString name="semicolon">
          -379 -114 -21 491 163 hstem
          74 130 vstem
          204 356 rmoveto
          29 callsubr
          87 -491 63 callsubr
          -32 -137 rlineto
          endchar
        </CharString>
        <CharString name="servicemark">
          159 407 72 -57 -21 238 71 6 -20 hstemhm
          358 102 197 102 hintmask 10101100
          558 565 rmoveto
          -48 145 rlineto
          -152 -303 102 174 hlineto
          57 55 callsubr
          -154 vlineto
          -295 -28 rmoveto
          hintmask 10011100
          21 -43 -45 13 -41 hhcurveto
          -75 -53 -41 -61 -49 30 -21 82 -21 hvcurveto
          47 -12 15 -6 -12 vvcurveto
          -9 -13 -5 -25 -36 -40 14 21 -35 vhcurveto
          -39 -74 rlineto
          hintmask 01101100
          -23 39 61 -16 52 hhcurveto
          78 52 35 62 53 -33 26 -87 17 hvcurveto
          -46 9 -11 8 12 vvcurveto
          11 13 5 23 30 29 -11 -18 34 vhcurveto
          endchar
        </CharString>
        <CharString name="seven">
          -83 -105 -21 564 146 hstem
          49 -126 rmoveto
          181 hlineto
          350 710 rlineto
          -551 -146 299 hlineto
          endchar
        </CharString>
        <CharString name="seven.denominator">
          -257 22 77 callgsubr
          1 -21 callsubr
          235 hlineto
          endchar
        </CharString>
        <CharString name="seven.lnum">
          -80 22 -21 564 146 hstem
          54 1 rmoveto
          181 hlineto
          350 710 rlineto
          -550 -146 298 hlineto
          endchar
        </CharString>
        <CharString name="seven.numerator">
          -257 322 77 callgsubr
          301 -21 callsubr
          234 hlineto
          endchar
        </CharString>
        <CharString name="seveneighths">
          299 50 callsubr
          76 90 208 93 hstemhm
          555 -32 callsubr
          hintmask 0111101010000000
          175 -9 -93 callgsubr
          820 72 49 callgsubr
          hintmask 1011101100000000
          -79 callgsubr
          hintmask 1011110010000000
          -44 -21 -38 -27 -90 callgsubr
          hintmask 1011101100000000
          -68 callgsubr
          -601 -1 -21 callsubr
          234 hlineto
          endchar
        </CharString>
        <CharString name="seveninferior">
          -257 -65 77 callgsubr
          -86 -21 callsubr
          235 hlineto
          endchar
        </CharString>
        <CharString name="sevensuperior">
          -257 409 77 callgsubr
          388 -21 callsubr
          234 hlineto
          endchar
        </CharString>
        <CharString name="six">
          -75 callgsubr
        </CharString>
        <CharString name="six.denominator">
          -227 -6 3 callsubr
          144 rmoveto
          81 -74 62 -108 -37 -47 -10 -21 77 callsubr
          -24 22 hvcurveto
          53 65 17 callsubr
          67 83 12 callsubr
        </CharString>
        <CharString name="six.lnum">
          -75 callgsubr
        </CharString>
        <CharString name="six.numerator">
          -227 290 3 callsubr
          440 rmoveto
          81 -35 callgsubr
          83 hvcurveto
          -185 -64 rmoveto
          -53 -45 30 34 35 61 callgsubr
        </CharString>
        <CharString name="sixinferior">
          -227 -93 86 126 80 59 89 hstem
          32 90 195 88 vstem
          405 57 rmoveto
          81 -74 61 -108 -37 -47 -10 -20 77 callsubr
          -25 22 hvcurveto
          53 66 17 callsubr
          66 84 12 callsubr
        </CharString>
        <CharString name="sixsuperior">
          -227 377 3 callsubr
          528 rmoveto
          80 -35 callgsubr
          84 hvcurveto
          -185 -65 rmoveto
          -53 -45 30 35 34 61 callgsubr
        </CharString>
        <CharString name="slash">
          76 -27 callgsubr
          531 710 rmoveto
          -505 -710 rlineto
          177 hlineto
          505 710 rlineto
          endchar
        </CharString>
        <CharString name="space">
          -426 endchar
        </CharString>
        <CharString name="sterling">
          -95 -15 136 -105 105 -105 121 128 119 202 129 hstemhm
          75 142 hintmask 01011100
          59 265 rmoveto
          90 hlineto
          -5 -58 -37 -61 -57 -41 88 callgsubr
          hintmask 10011100
          65 66 -31 61 hhcurveto
          39 47 13 19 31 hvcurveto
          -39 118 rlineto
          -9 -27 -19 -5 -24 hhcurveto
          hintmask 00111100
          -44 -43 16 -46 hhcurveto
          -22 -24 -4 -10 -30 hvcurveto
          48 50 23 43 5 49 rrcurveto
          167 119 -187 hlineto
          -20 51 -29 41 41 11 callgsubr
          -53 26 -48 22 -49 hvcurveto
          -64 hlineto
          endchar
        </CharString>
        <CharString name="summation">
          -87 0 136 454 120 hstem
          531 710 rmoveto
          -492 -105 hlineto
          202 -249 -209 -249 rlineto
          -107 503 136 -324 4 vlineto
          188 229 -175 217 rlineto
          4 307 vlineto
          endchar
        </CharString>
        <CharString name="t">
          -257 -10 146 82 callgsubr
          hstem
          88 5 callsubr
          364 155 rmoveto
          -9 -19 -27 -10 -24 hhcurveto
          -75 callsubr
        </CharString>
        <CharString name="t.alt">
          -256 21 -21 381 144 167 -20 hstem
          105 164 vstem
          269 hmoveto
          381 121 144 -121 167 -164 -167 -79 -144 79 -381 vlineto
          endchar
        </CharString>
        <CharString name="tbar">
          -256 -10 146 111 93 64 121 167 -20 hstem
          89 5 callsubr
          365 155 rmoveto
          -9 -19 -27 -10 -24 hhcurveto
          -27 -19 14 35 hvcurveto
          62 107 93 -107 64 107 121 -107 167 -160 -167 4 callsubr
          -64 -67 -93 67 -117 vlineto
          -102 66 -38 80 57 60 62 callgsubr
        </CharString>
        <CharString name="tcaron">
          -257 -10 146 268 121 205 -20 hstem
          88 5 callsubr
          483 730 -102 callgsubr
          -24 -417 rmoveto
          -9 -19 -27 -10 -24 hhcurveto
          -75 callsubr
        </CharString>
        <CharString name="tdotbelow">
          -257 -27 callsubr
          57 146 28 callsubr
          -91 144 hintmask 11110100
          301 -29 callsubr
          207 359 rmoveto
          -9 -19 -27 -10 -24 hhcurveto
          hintmask 11111000
          -75 callsubr
        </CharString>
        <CharString name="thorn">
          -59 -192 -21 186 143 282 143 169 -20 hstem
          55 164 194 164 vstem
          577 256 rmoveto
          136 -100 149 -158 -63 -28 -25 -13 -9 vhcurveto
          207 -164 -923 164 221 vlineto
          -13 7 30 -22 55 hhcurveto
          145 121 133 150 hvcurveto
          -164 3 rmoveto
          -81 -45 -62 -62 -43 -44 36 25 vhcurveto
          155 vlineto
          38 20 27 28 43 hhcurveto
          66 38 -64 -75 hvcurveto
          endchar
        </CharString>
        <CharString name="three">
          -90 -147 146 174 115 151 137 hstemhm
          350 171 -154 166 hintmask 11110000
          393 237 rmoveto
          75 13 53 70 79 vvcurveto
          107 -95 70 -142 -106 -101 -39 -57 -43 vhcurveto
          101 -116 rlineto
          48 31 46 27 54 hhcurveto
          51 33 -23 -44 -50 -45 -34 -74 hvcurveto
          -33 -115 30 hlineto
          hintmask 11101000
          95 44 -31 -60 -56 -37 -27 -76 -63 -45 20 37 -36 hvcurveto
          -86 -114 rlineto
          -59 57 79 -30 102 hhcurveto
          166 105 79 125 93 -57 72 -83 15 hvcurveto
          endchar
        </CharString>
        <CharString name="three.denominator">
          -245 -6 94 93 85 83 87 2 callgsubr
          -6 -40 callsubr
          hintmask 11101000
          -66 callgsubr
          -51 22 62 -25 83 hhcurveto
          endchar
        </CharString>
        <CharString name="three.lnum">
          -73 -9 147 163 133 145 140 hstemhm
          358 171 -153 153 -153 167 hintmask 11100100
          268 -9 rmoveto
          133 142 61 142 89 -56 78 -89 15 hvcurveto
          hintmask 11110000
          78 17 53 53 78 vvcurveto
          111 -107 84 -145 -92 -103 -34 -62 -49 vhcurveto
          102 -118 rlineto
          31 20 44 43 79 hhcurveto
          30 50 -14 -49 -58 -79 -24 -98 hvcurveto
          -33 -133 33 hlineto
          hintmask 11101000
          124 71 -25 -61 -51 -52 -26 -59 -96 -40 67 23 -8 hvcurveto
          -83 -109 rlineto
          -84 39 80 -44 111 hhcurveto
          endchar
        </CharString>
        <CharString name="three.numerator">
          -245 289 94 93 85 84 86 2 callgsubr
          289 -84 callgsubr
          hintmask 11101000
          -66 callgsubr
          -50 22 62 -26 83 hhcurveto
          endchar
        </CharString>
        <CharString name="threeeighths">
          344 50 callsubr
          25 94 -43 90 46 85 84 86 hstemhm
          286 109 -94 94 205 -32 callsubr
          hintmask 1011011101010000
          206 289 -84 callgsubr
          hintmask 0111011011001000
          -66 callgsubr
          -50 22 62 -26 83 hhcurveto
          62 -298 -93 callgsubr
          772 72 49 callgsubr
          hintmask 1010111100110000
          -79 callgsubr
          hintmask 1011011101001000
          -44 -21 -38 -27 -90 callgsubr
          hintmask 1010111100110000
          -58 callsubr
        </CharString>
        <CharString name="threeinferior">
          -245 -93 94 93 85 83 87 2 callgsubr
          -93 rmoveto
          95 94 36 88 54 -40 48 -66 9 hvcurveto
          60 9 36 33 47 vvcurveto
          67 -76 51 -101 -67 -71 -21 -37 -32 vhcurveto
          60 -76 -10 callsubr
          -33 -32 callgsubr
          hintmask 11101000
          93 56 -14 -35 -30 -45 -14 -52 -59 -38 27 25 -19 hvcurveto
          -49 -70 rlineto
          -51 22 62 -25 83 hhcurveto
          endchar
        </CharString>
        <CharString name="threequarters">
          321 12 -21 98 91 109 94 93 85 84 86 hstemhm
          285 109 -94 94 400 89 hintmask 11111101
          205 289 -84 callgsubr
          hintmask 11111011
          -66 callgsubr
          -50 22 62 -26 83 hhcurveto
          678 -288 rmoveto
          -64 callsubr
          80 callgsubr
          -365 -189 -25 callgsubr
        </CharString>
        <CharString name="threesuperior">
          -245 376 94 93 85 84 86 2 callgsubr
          376 -84 callgsubr
          hintmask 11101000
          93 56 -14 -35 -30 -45 -14 -52 -66 -37 33 19 -13 hvcurveto
          -49 -70 rlineto
          -50 22 62 -26 83 hhcurveto
          endchar
        </CharString>
        <CharString name="tilde">
          -209 588 92 -73 -21 48 46 -18 callgsubr
          hintmask 01101000
          292 42 callsubr
          hintmask 01010000
          -95 callsubr
          hintmask 10001000
          -50 callgsubr
        </CharString>
        <CharString name="trademark">
          208 428 -21 203 102 -2 -20 hstemhm
          156 102 141 103 196 102 hintmask 11011100
          353 712 rmoveto
          -292 -102 95 -203 102 203 95 hlineto
          246 -45 rmoveto
          hintmask 10111100
          -47 145 rlineto
          -153 -303 103 174 hlineto
          56 55 callsubr
          -153 vlineto
          endchar
        </CharString>
        <CharString name="two">
          -79 0 144 298 139 hstem
          352 174 vstem
          537 hmoveto
          144 -272 vlineto
          24 27 77 42 41 24 rrcurveto
          58 35 61 46 89 vvcurveto
          106 -80 68 -143 -117 -102 -48 -47 -44 vhcurveto
          102 -118 rlineto
          44 38 40 30 55 hhcurveto
          49 28 -25 -37 -37 -38 -14 -125 -70 hvcurveto
          -118 -66 -32 -68 -125 vvcurveto
          endchar
        </CharString>
        <CharString name="two.denominator">
          -225 0 20 callsubr
          397 hmoveto
          -35 callsubr
          -26 hvcurveto
          -102 -43 -31 -50 -111 vvcurveto
          endchar
        </CharString>
        <CharString name="two.lnum">
          -40 0 144 432 142 hstem
          39 225 122 182 vstem
          569 hmoveto
          144 -305 vlineto
          57 62 36 83 42 vhcurveto
          93 47 66 54 116 vvcurveto
          137 -88 85 -158 -136 -102 -65 -50 -44 vhcurveto
          100 -106 rlineto
          37 36 60 42 64 hhcurveto
          51 35 -28 -54 -81 -83 -37 -85 -40 hvcurveto
          -144 -68 -35 -83 -185 vvcurveto
          endchar
        </CharString>
        <CharString name="two.numerator">
          -231 296 20 callsubr
          382 296 rmoveto
          91 -210 vlineto
          29 38 22 58 17 vhcurveto
          51 15 77 34 88 vvcurveto
          89 15 callsubr
          -33 -48 -67 -18 -64 -27 hvcurveto
          -102 -43 -30 -50 -111 vvcurveto
          endchar
        </CharString>
        <CharString name="twoinferior">
          -226 -87 20 callsubr
          397 -87 rmoveto
          -35 callsubr
          -27 hvcurveto
          -102 -42 -31 -50 -111 vvcurveto
          endchar
        </CharString>
        <CharString name="twosuperior">
          -231 383 20 callsubr
          382 383 rmoveto
          91 -200 vlineto
          29 28 22 58 17 vhcurveto
          51 15 77 34 89 vvcurveto
          88 15 callsubr
          -32 -49 -67 -19 -64 -26 hvcurveto
          -101 -42 -31 -51 -111 vvcurveto
          endchar
        </CharString>
        <CharString name="twothirds">
          373 -6 94 -76 -21 190 85 30 91 -38 87 204 91 hstemhm
          301 104 484 109 -94 94 hintmask 0111011100000000
          391 296 rmoveto
          91 -208 vlineto
          29 38 22 57 17 vhcurveto
          51 15 76 34 88 vvcurveto
          89 -59 50 -110 -99 -70 -37 -32 -23 vhcurveto
          58 -68 rlineto
          22 24 41 24 55 hhcurveto
          49 30 -14 -33 -48 -66 -18 -64 -27 hvcurveto
          -101 -43 -29 -50 -111 vvcurveto
          254 -305 -93 callgsubr
          hintmask 1010111100000000
          585 -62 -40 callsubr
          hintmask 1011011010000000
          -66 callgsubr
          -51 22 62 -25 83 hhcurveto
          endchar
        </CharString>
        <CharString name="u">
          -65 callgsubr
          -54 callsubr
          hintmask 01111000
          13 callsubr
          hintmask 10111000
          -106 callsubr
          hintmask 01111000
          43 callsubr
        </CharString>
        <CharString name="u.alt">
          -46 -10 135 -104 -40 callgsubr
          -54 callsubr
          hintmask 01111000
          558 hmoveto
          525 -41 callsubr
          hintmask 10111000
          -53 -30 -42 -23 -39 hhcurveto
          -56 -21 40 59 hvcurveto
          301 -160 -336 vlineto
          -127 52 -72 122 72 72 27 64 37 vhcurveto
          hintmask 01111000
          -81 vlineto
          endchar
        </CharString>
        <CharString name="uacute">
          -33 callgsubr
          445 730 -102 callgsubr
          -136 -582 -73 callgsubr
          hintmask 10111100
          -106 callsubr
          hintmask 01111100
          43 callsubr
        </CharString>
        <CharString name="ubreve">
          -65 callgsubr
          78 70 -70 147 -54 callsubr
          hintmask 01110110
          13 callsubr
          hintmask 10110110
          -106 callsubr
          hintmask 01110110
          -46 callsubr
          89 663 rmoveto
          hintmask 10101110
          -93 callsubr
          hintmask 10110110
          -55 callgsubr
        </CharString>
        <CharString name="ucircumflex">
          -33 callgsubr
          219 586 -104 callsubr
          77 -632 -73 callgsubr
          hintmask 10111100
          -106 callsubr
          hintmask 01111100
          43 callsubr
        </CharString>
        <CharString name="udblgrave">
          -33 callgsubr
          379 572 -98 callsubr
          97 -740 -73 callgsubr
          hintmask 10111100
          -106 callsubr
          hintmask 01111100
          43 callsubr
        </CharString>
        <CharString name="udieresis">
          -65 callgsubr
          89 129 hstemhm
          50 160 -77 -24 callgsubr
          -77 160 hintmask 01110110
          265 594 -101 callsubr
          -129 -604 -73 callgsubr
          hintmask 10111001
          -106 callsubr
          hintmask 01111010
          43 callsubr
        </CharString>
        <CharString name="udotbelow">
          -32 -27 callsubr
          59 -53 callgsubr
          hstemhm
          50 160 20 144 24 160 hintmask 10111110
          13 callsubr
          hintmask 11011110
          -106 callsubr
          hintmask 10111110
          -46 callsubr
          160 -194 -92 callgsubr
          endchar
        </CharString>
        <CharString name="ugrave">
          -65 callgsubr
          226 27 callsubr
          13 callsubr
          hintmask 10111100
          -106 callsubr
          hintmask 01111100
          -46 callsubr
          45 583 -88 callgsubr
        </CharString>
        <CharString name="uhungarumlaut">
          -65 callgsubr
          226 27 callsubr
          13 callsubr
          hintmask 10111100
          -106 callsubr
          hintmask 01111100
          -46 callsubr
          114 741 -72 callgsubr
          endchar
        </CharString>
        <CharString name="uinvertedbreve">
          -65 callgsubr
          78 147 -70 70 -54 callsubr
          hintmask 10101110
          301 660 rmoveto
          hintmask 10110110
          -94 callsubr
          hintmask 01101110
          -19 callsubr
          -87 -670 -73 callgsubr
          hintmask 10110110
          -106 callsubr
          hintmask 01110110
          43 callsubr
        </CharString>
        <CharString name="umacron">
          -65 callgsubr
          116 97 -54 callsubr
          hintmask 01111100
          13 callsubr
          hintmask 10111100
          -106 callsubr
          hintmask 01111100
          -46 callsubr
          243 631 -38 callsubr
        </CharString>
        <CharString name="underscore">
          -200 -144 144 hstem
          410 -144 rmoveto
          144 -360 -144 vlineto
          endchar
        </CharString>
        <CharString name="uni00A0">
          -426 endchar
        </CharString>
        <CharString name="uni00AD">
          26 callgsubr
        </CharString>
        <CharString name="uni015E">
          -44 52 callsubr
          29 146 430 146 hstemhm
          48 169 165 73 -44 176 hintmask 11111100
          206 -80 callsubr
          21 32 rlineto
          hintmask 11111010
          123 9 108 59 147 vvcurveto
          132 -85 47 -136 36 vhcurveto
          -98 26 -51 13 48 vvcurveto
          -49 callgsubr
          72 136 rlineto
          37 -63 -93 41 -100 hhcurveto
          -142 -120 -81 -150 -107 60 -49 131 -40 hvcurveto
          99 -30 73 -13 -53 vvcurveto
          -34 -28 -19 -59 -109 -113 69 14 -12 vhcurveto
          -72 -143 75 -50 102 -31 96 -6 rlinecurve
          -42 -87 rlineto
          4 15 36 7 28 hhcurveto
          hintmask 11111100
          32 22 -9 -23 -24 -24 -8 -32 -36 -39 11 9 -15 hvcurveto
          endchar
        </CharString>
        <CharString name="uni015F">
          -160 52 callsubr
          26 112 321 111 hstemhm
          34 148 141 77 -77 154 hintmask 11111100
          151 -80 callsubr
          21 30 rlineto
          hintmask 11111010
          109 12 67 62 94 vvcurveto
          -1 callgsubr
          vhcurveto
          -2 callsubr
          -102 callsubr
          54 -49 81 -29 81 -5 rlinecurve
          -42 -85 -69 callgsubr
        </CharString>
        <CharString name="uni0162">
          -38 52 callsubr
          56 30 callgsubr
          hstemhm
          229 164 -27 73 hintmask 11110100
          190 -80 callsubr
          26 38 rlineto
          hintmask 11111000
          48 566 216 144 -597 -144 217 -566 50 hlineto
          -46 -94 rlineto
          4 15 36 7 28 hhcurveto
          hintmask 11110100
          32 22 -9 -23 -24 -24 -8 -32 -36 -39 11 9 -15 hvcurveto
          endchar
        </CharString>
        <CharString name="uni0163">
          -257 52 callsubr
          -48 219 28 callsubr
          51 73 hintmask 11011110
          123 -80 callsubr
          21 31 44 6 44 14 34 15 rlinecurve
          -31 127 rlineto
          hintmask 10111110
          -9 -19 -27 -10 -24 hhcurveto
          -27 -19 14 35 hvcurveto
          219 107 121 -107 167 -160 -167 4 callsubr
          -274 vlineto
          -91 52 -39 68 -8 vhcurveto
          -42 -86 -69 callgsubr
        </CharString>
        <CharString name="uni01C4">
          682 7 callgsubr
          36 callsubr
          -57 callsubr
          288 167 hintmask 10111100
          872 878 -100 callsubr
          -210 -915 rmoveto
          -70 callsubr
          vlineto
          hintmask 11011100
          -144 356 vlineto
          -370 -443 rlineto
          -411 -123 rmoveto
          -87 callsubr
          19 callgsubr
        </CharString>
        <CharString name="uni01C5">
          551 59 callsubr
          20 -20 hstemhm
          -57 callsubr
          288 167 hintmask 10101110
          795 -24 callsubr
          -111 254 vlineto
          -268 -318 rlineto
          -407 1 callsubr
          hintmask 01110110
          19 callgsubr
        </CharString>
</ttFont>
